<svg xmlns="http://www.w3.org/2000/svg" xmlns:xlink="http://www.w3.org/1999/xlink" width="500" zoomAndPan="magnify" viewBox="0 0 375 374.999991" height="500" preserveAspectRatio="xMidYMid meet" version="1.0"><defs><clipPath id="cb68e410c6"><path d="M 37.5 45 L 337.5 45 L 337.5 330 L 37.5 330 Z M 37.5 45 " clip-rule="nonzero"/></clipPath></defs><g clip-path="url(#cb68e410c6)"><path fill="#0ea5e9" d="M 273.277344 187.972656 C 270.785156 187.015625 269.539062 184.210938 270.5 181.71875 C 271.457031 179.226562 274.261719 177.980469 276.753906 178.941406 L 286.738281 182.785156 C 288.605469 183.503906 289.839844 185.300781 289.839844 187.300781 L 289.839844 220.128906 C 289.839844 222.132812 288.605469 223.925781 286.738281 224.644531 C 286.738281 224.644531 268.984375 231.480469 268.984375 231.480469 C 266.488281 240.957031 262.703125 250.039062 257.777344 258.511719 L 265.488281 275.925781 C 266.300781 277.753906 265.902344 279.894531 264.488281 281.308594 L 241.277344 304.515625 C 239.863281 305.929688 237.726562 306.328125 235.898438 305.519531 C 235.898438 305.519531 218.492188 297.808594 218.492188 297.808594 C 210.039062 302.757812 200.933594 306.519531 191.449219 309.011719 L 184.617188 326.769531 C 183.898438 328.636719 182.101562 329.867188 180.101562 329.867188 L 147.273438 329.867188 C 145.269531 329.867188 143.476562 328.636719 142.757812 326.769531 C 142.757812 326.769531 135.921875 309.015625 135.921875 309.015625 C 130.359375 307.554688 124.941406 305.652344 119.703125 303.335938 C 117.261719 302.257812 116.152344 299.398438 117.234375 296.953125 C 118.3125 294.511719 121.171875 293.40625 123.613281 294.484375 C 129.09375 296.90625 134.789062 298.832031 140.652344 300.222656 C 142.207031 300.589844 143.476562 301.699219 144.050781 303.191406 L 150.59375 320.191406 C 150.59375 320.191406 176.777344 320.191406 176.777344 320.191406 L 183.320312 303.191406 C 183.894531 301.703125 185.164062 300.589844 186.71875 300.222656 C 196.925781 297.796875 206.691406 293.765625 215.609375 288.25 C 216.96875 287.410156 218.652344 287.296875 220.113281 287.941406 C 220.113281 287.941406 236.78125 295.328125 236.78125 295.328125 L 255.296875 276.8125 L 247.914062 260.140625 C 247.269531 258.6875 247.378906 257.011719 248.210938 255.65625 C 253.695312 246.703125 257.765625 236.960938 260.191406 226.746094 C 260.5625 225.195312 261.671875 223.921875 263.164062 223.351562 L 280.164062 216.808594 L 280.164062 190.625 Z M 72.160156 276.929688 C 74.046875 278.816406 74.046875 281.882812 72.160156 283.773438 C 70.269531 285.660156 67.207031 285.660156 65.316406 283.773438 L 62.851562 281.308594 C 61.4375 279.890625 61.039062 277.75 61.851562 275.921875 C 61.851562 275.921875 69.589844 258.519531 69.589844 258.519531 C 64.644531 250.066406 60.878906 240.960938 58.363281 231.480469 L 40.601562 224.644531 C 38.734375 223.925781 37.5 222.132812 37.5 220.128906 L 37.5 187.300781 C 37.5 185.300781 38.734375 183.503906 40.601562 182.785156 C 40.601562 182.785156 58.363281 175.949219 58.363281 175.949219 C 60.878906 166.445312 64.644531 157.359375 69.59375 148.882812 L 61.851562 131.476562 C 61.039062 129.648438 61.4375 127.507812 62.851562 126.089844 L 86.0625 102.882812 C 87.476562 101.464844 89.617188 101.070312 91.449219 101.882812 C 91.449219 101.882812 108.855469 109.621094 108.855469 109.621094 C 117.328125 104.671875 126.414062 100.910156 135.894531 98.417969 L 142.757812 80.625 C 143.476562 78.757812 145.273438 77.527344 147.273438 77.527344 L 180.101562 77.527344 C 182.105469 77.527344 183.898438 78.761719 184.617188 80.632812 C 184.617188 80.632812 191.453125 98.417969 191.453125 98.417969 C 194.371094 99.1875 197.253906 100.074219 200.089844 101.078125 C 202.609375 101.972656 203.925781 104.738281 203.035156 107.257812 C 202.140625 109.773438 199.375 111.09375 196.855469 110.199219 C 193.539062 109.023438 190.15625 108.027344 186.71875 107.207031 C 185.164062 106.839844 183.894531 105.726562 183.320312 104.238281 L 176.777344 87.207031 L 150.589844 87.207031 L 144.015625 104.242188 C 143.441406 105.730469 142.171875 106.839844 140.621094 107.207031 C 130.410156 109.636719 120.675781 113.667969 111.726562 119.183594 C 110.367188 120.019531 108.679688 120.132812 107.222656 119.484375 L 90.554688 112.074219 L 72.046875 130.582031 L 79.457031 147.25 C 80.105469 148.707031 79.992188 150.394531 79.15625 151.753906 C 73.636719 160.707031 69.605469 170.449219 67.144531 180.695312 C 66.773438 182.242188 65.664062 183.507812 64.175781 184.082031 L 47.175781 190.625 C 47.175781 190.625 47.175781 216.808594 47.175781 216.808594 L 64.175781 223.351562 C 65.664062 223.921875 66.769531 225.1875 67.144531 226.734375 C 69.601562 236.945312 73.636719 246.71875 79.152344 255.636719 C 79.992188 256.996094 80.105469 258.6875 79.457031 260.148438 L 72.046875 276.816406 Z M 168.75 141.804688 C 171.414062 142.019531 173.398438 144.355469 173.183594 147.019531 C 172.96875 149.679688 170.632812 151.664062 167.96875 151.449219 C 166.550781 151.335938 165.117188 151.277344 163.671875 151.277344 C 134.703125 151.277344 111.246094 174.734375 111.246094 203.699219 C 111.246094 210.769531 112.644531 217.511719 115.175781 223.664062 C 116.191406 226.136719 115.015625 228.964844 112.542969 229.980469 C 110.074219 231 107.246094 229.820312 106.226562 227.347656 C 103.226562 220.058594 101.570312 212.070312 101.570312 203.699219 C 101.570312 169.386719 129.359375 141.601562 163.671875 141.601562 C 165.378906 141.601562 167.074219 141.667969 168.75 141.804688 Z M 168.371094 265.65625 C 165.707031 265.855469 163.382812 263.855469 163.183594 261.191406 C 162.984375 258.527344 164.984375 256.203125 167.648438 256.003906 C 188.574219 254.4375 206.074219 240.589844 212.972656 221.648438 C 213.886719 219.140625 216.667969 217.84375 219.175781 218.757812 C 221.683594 219.671875 222.980469 222.453125 222.066406 224.960938 C 213.894531 247.398438 193.15625 263.796875 168.371094 265.65625 Z M 227.972656 90.976562 L 204.25 67.25 C 202.933594 65.9375 202.488281 63.984375 203.105469 62.230469 C 203.71875 60.472656 205.285156 59.226562 207.136719 59.019531 L 332.125 45.101562 C 333.585938 44.9375 335.042969 45.449219 336.082031 46.488281 C 337.121094 47.527344 337.632812 48.984375 337.46875 50.445312 L 323.550781 175.433594 C 323.34375 177.28125 322.097656 178.851562 320.339844 179.464844 C 318.585938 180.082031 316.632812 179.636719 315.320312 178.320312 L 291.59375 154.597656 L 60.453125 328.894531 C 58.527344 330.347656 55.824219 330.15625 54.121094 328.453125 C 52.414062 326.746094 52.222656 324.042969 53.675781 322.117188 Z M 238.234375 93.441406 L 82.183594 300.386719 L 289.128906 144.335938 C 291.054688 142.882812 293.757812 143.070312 295.460938 144.777344 L 315.046875 164.359375 C 315.046875 164.359375 327.183594 55.386719 327.183594 55.386719 C 307.230469 57.609375 243.097656 64.753906 218.210938 67.523438 L 237.792969 87.109375 C 239.5 88.816406 239.6875 91.515625 238.234375 93.441406 Z M 238.234375 93.441406 " fill-opacity="1" fill-rule="evenodd"/></g></svg>