<svg xmlns="http://www.w3.org/2000/svg" xmlns:xlink="http://www.w3.org/1999/xlink" width="500" zoomAndPan="magnify" viewBox="0 0 375 374.999991" height="500" preserveAspectRatio="xMidYMid meet" version="1.0"><defs><clipPath id="627c598799"><path d="M 48 35.035156 L 326.996094 35.035156 L 326.996094 340 L 48 340 Z M 48 35.035156 " clip-rule="nonzero"/></clipPath></defs><g clip-path="url(#627c598799)"><path fill="#0ea5e9" d="M 115.25 110.632812 C 108.21875 115.949219 99.464844 119.105469 89.976562 119.105469 C 66.820312 119.105469 48.019531 100.304688 48.019531 77.148438 C 48.019531 53.992188 66.820312 35.191406 89.976562 35.191406 C 113.132812 35.191406 131.933594 53.992188 131.933594 77.148438 C 131.933594 87.28125 128.335938 96.578125 122.347656 103.835938 L 156.910156 139.914062 C 166.511719 132.195312 178.707031 127.578125 191.972656 127.578125 C 200.945312 127.578125 209.433594 129.691406 216.957031 133.449219 L 235.132812 103.792969 C 228.230469 97.921875 223.851562 89.175781 223.851562 79.414062 C 223.851562 61.761719 238.183594 47.425781 255.839844 47.425781 C 273.492188 47.425781 287.824219 61.761719 287.824219 79.414062 C 287.824219 97.070312 273.492188 111.402344 255.839844 111.402344 C 251.46875 111.402344 247.300781 110.523438 243.507812 108.933594 L 225.328125 138.59375 C 239.085938 148.808594 248.007812 165.175781 248.007812 183.613281 C 248.007812 193.917969 245.222656 203.574219 240.363281 211.871094 L 289.296875 246.535156 C 293.304688 242.910156 298.617188 240.699219 304.445312 240.699219 C 316.910156 240.699219 327.03125 250.820312 327.03125 263.285156 C 327.03125 275.753906 316.910156 285.875 304.445312 285.875 C 291.976562 285.875 281.855469 275.753906 281.855469 263.285156 C 281.855469 260.191406 282.480469 257.238281 283.609375 254.550781 L 234.675781 219.882812 C 224.390625 231.972656 209.070312 239.648438 191.972656 239.648438 C 188.40625 239.648438 184.914062 239.316406 181.53125 238.675781 L 173.695312 266.4375 C 187.324219 272.277344 196.886719 285.824219 196.886719 301.582031 C 196.886719 322.675781 179.757812 339.800781 158.667969 339.800781 C 137.574219 339.800781 120.449219 322.675781 120.449219 301.582031 C 120.449219 280.488281 137.574219 263.363281 158.667969 263.363281 C 160.558594 263.363281 162.417969 263.5 164.238281 263.765625 L 172.074219 236.007812 C 153.464844 228.929688 139.589844 212.214844 136.554688 191.972656 L 88.183594 194.972656 C 86.441406 203.902344 78.566406 210.648438 69.132812 210.648438 C 58.417969 210.648438 49.71875 201.945312 49.71875 191.230469 C 49.71875 180.515625 58.417969 171.816406 69.132812 171.816406 C 77.726562 171.816406 85.027344 177.417969 87.578125 185.164062 L 135.953125 182.164062 C 136.296875 168.605469 141.472656 156.234375 149.816406 146.710938 Z M 158.667969 273.191406 C 142.996094 273.191406 130.273438 285.910156 130.273438 301.582031 C 130.273438 317.253906 142.996094 329.972656 158.667969 329.972656 C 174.335938 329.972656 187.058594 317.253906 187.058594 301.582031 C 187.058594 285.910156 174.335938 273.191406 158.667969 273.191406 Z M 69.132812 181.644531 C 63.839844 181.644531 59.542969 185.941406 59.542969 191.230469 C 59.542969 196.523438 63.839844 200.820312 69.132812 200.820312 C 74.421875 200.820312 78.71875 196.523438 78.71875 191.230469 C 78.71875 185.941406 74.421875 181.644531 69.132812 181.644531 Z M 89.976562 45.015625 C 72.242188 45.015625 57.847656 59.414062 57.847656 77.148438 C 57.847656 94.882812 72.242188 109.28125 89.976562 109.28125 C 107.710938 109.28125 122.109375 94.882812 122.109375 77.148438 C 122.109375 59.414062 107.710938 45.015625 89.976562 45.015625 Z M 255.839844 57.253906 C 243.605469 57.253906 233.675781 67.183594 233.675781 79.414062 C 233.675781 91.644531 243.605469 101.574219 255.839844 101.574219 C 268.070312 101.574219 278 91.644531 278 79.414062 C 278 67.183594 268.070312 57.253906 255.839844 57.253906 Z M 304.445312 250.527344 C 297.402344 250.527344 291.683594 256.242188 291.683594 263.285156 C 291.683594 270.328125 297.402344 276.046875 304.445312 276.046875 C 311.488281 276.046875 317.203125 270.328125 317.203125 263.285156 C 317.203125 256.242188 311.488281 250.527344 304.445312 250.527344 Z M 191.972656 137.402344 C 166.46875 137.402344 145.761719 158.109375 145.761719 183.613281 C 145.761719 209.117188 166.46875 229.824219 191.972656 229.824219 C 217.476562 229.824219 238.183594 209.117188 238.183594 183.613281 C 238.183594 158.109375 217.476562 137.402344 191.972656 137.402344 Z M 191.972656 137.402344 " fill-opacity="1" fill-rule="evenodd"/></g></svg>