<svg xmlns="http://www.w3.org/2000/svg" xmlns:xlink="http://www.w3.org/1999/xlink" width="500" zoomAndPan="magnify" viewBox="0 0 375 374.999991" height="500" preserveAspectRatio="xMidYMid meet" version="1.0"><defs><clipPath id="3f485e60a4"><path d="M 37.5 182 L 77 182 L 77 218 L 37.5 218 Z M 37.5 182 " clip-rule="nonzero"/></clipPath><clipPath id="3929ead483"><path d="M 52 44.8125 L 337.5 44.8125 L 337.5 330.5625 L 52 330.5625 Z M 52 44.8125 " clip-rule="nonzero"/></clipPath></defs><g clip-path="url(#3f485e60a4)"><path fill="#0ea5e9" d="M 57.089844 217.421875 C 55.371094 217.421875 53.71875 216.46875 52.828125 215.007812 L 38.390625 189.949219 C 37.5 188.421875 37.5 186.578125 38.390625 185.050781 C 39.28125 183.523438 40.871094 182.632812 42.652344 182.632812 L 71.527344 182.632812 C 73.242188 182.632812 74.898438 183.589844 75.785156 185.050781 C 76.675781 186.578125 76.675781 188.421875 75.785156 189.949219 L 61.351562 214.941406 C 60.460938 216.46875 58.804688 217.421875 57.089844 217.421875 Z M 51.109375 192.429688 L 57.089844 202.796875 L 63.066406 192.429688 Z M 51.109375 192.429688 " fill-opacity="1" fill-rule="nonzero"/></g><g clip-path="url(#3929ead483)"><path fill="#0ea5e9" d="M 194.910156 330.1875 C 192.238281 330.1875 190.011719 328.023438 190.011719 325.289062 C 190.011719 322.554688 192.175781 320.390625 194.910156 320.390625 C 268.175781 320.390625 327.832031 260.796875 327.832031 187.46875 C 327.832031 114.203125 268.238281 54.542969 194.910156 54.542969 C 121.640625 54.542969 61.984375 114.136719 61.984375 187.46875 C 61.984375 190.140625 59.824219 192.367188 57.089844 192.367188 C 54.355469 192.367188 52.191406 190.203125 52.191406 187.46875 C 52.191406 149.371094 67.011719 113.5 93.976562 86.597656 C 120.941406 59.632812 156.75 44.8125 194.847656 44.8125 C 232.941406 44.8125 268.8125 59.632812 295.714844 86.597656 C 322.679688 113.566406 337.5 149.371094 337.5 187.46875 C 337.5 225.5625 322.679688 261.433594 295.714844 288.335938 C 268.75 315.238281 233.003906 330.1875 194.910156 330.1875 Z M 194.910156 330.1875 " fill-opacity="1" fill-rule="nonzero"/></g><path fill="#0ea5e9" d="M 194.910156 287.128906 C 140.023438 287.128906 95.3125 242.480469 95.3125 187.53125 C 95.3125 132.582031 139.960938 87.933594 194.910156 87.933594 C 249.859375 87.933594 294.507812 132.582031 294.507812 187.53125 C 294.507812 242.480469 249.796875 287.128906 194.910156 287.128906 Z M 194.910156 97.730469 C 145.363281 97.730469 105.105469 138.050781 105.105469 187.53125 C 105.105469 237.011719 145.363281 277.335938 194.910156 277.335938 C 244.453125 277.335938 284.710938 237.011719 284.710938 187.53125 C 284.710938 138.050781 244.390625 97.730469 194.910156 97.730469 Z M 194.910156 97.730469 " fill-opacity="1" fill-rule="nonzero"/><path fill="#0ea5e9" d="M 225.691406 223.210938 C 224.417969 223.210938 223.210938 222.765625 222.257812 221.8125 L 191.476562 191.03125 C 190.585938 190.140625 190.074219 188.867188 190.074219 187.59375 L 190.074219 150.453125 C 190.074219 147.78125 192.238281 145.554688 194.972656 145.554688 C 197.707031 145.554688 199.871094 147.71875 199.871094 150.453125 L 199.871094 185.558594 L 229.253906 214.941406 C 231.160156 216.851562 231.160156 219.96875 229.253906 221.875 C 228.171875 222.765625 226.964844 223.210938 225.691406 223.210938 Z M 225.691406 223.210938 " fill-opacity="1" fill-rule="nonzero"/><path fill="#0ea5e9" d="M 194.910156 114.390625 C 192.238281 114.390625 190.011719 112.230469 190.011719 109.496094 L 190.011719 92.832031 C 190.011719 90.160156 192.175781 87.933594 194.910156 87.933594 C 197.644531 87.933594 199.804688 90.097656 199.804688 92.832031 L 199.804688 109.496094 C 199.742188 112.230469 197.582031 114.390625 194.910156 114.390625 Z M 194.910156 114.390625 " fill-opacity="1" fill-rule="nonzero"/><path fill="#0ea5e9" d="M 233.894531 124.824219 C 233.070312 124.824219 232.242188 124.632812 231.480469 124.1875 C 229.125 122.851562 228.363281 119.863281 229.699219 117.507812 L 238.03125 103.070312 C 239.367188 100.71875 242.355469 99.953125 244.707031 101.289062 C 247.0625 102.625 247.824219 105.617188 246.488281 107.96875 L 238.15625 122.40625 C 237.203125 123.996094 235.550781 124.824219 233.894531 124.824219 Z M 233.894531 124.824219 " fill-opacity="1" fill-rule="nonzero"/><path fill="#0ea5e9" d="M 262.453125 153.378906 C 260.734375 153.378906 259.144531 152.488281 258.191406 150.960938 C 256.855469 148.609375 257.617188 145.621094 259.972656 144.285156 L 274.410156 135.953125 C 276.761719 134.617188 279.75 135.378906 281.085938 137.734375 C 282.421875 140.085938 281.660156 143.074219 279.304688 144.410156 L 264.867188 152.742188 C 264.105469 153.1875 263.277344 153.378906 262.453125 153.378906 Z M 262.453125 153.378906 " fill-opacity="1" fill-rule="nonzero"/><path fill="#0ea5e9" d="M 289.546875 192.429688 L 272.882812 192.429688 C 270.210938 192.429688 267.984375 190.265625 267.984375 187.53125 C 267.984375 184.859375 270.148438 182.632812 272.882812 182.632812 L 289.546875 182.632812 C 292.21875 182.632812 294.441406 184.796875 294.441406 187.53125 C 294.441406 190.203125 292.28125 192.429688 289.546875 192.429688 Z M 289.546875 192.429688 " fill-opacity="1" fill-rule="nonzero"/><path fill="#0ea5e9" d="M 276.890625 239.746094 C 276.0625 239.746094 275.234375 239.554688 274.472656 239.109375 L 260.035156 230.78125 C 257.683594 229.445312 256.917969 226.453125 258.253906 224.101562 C 259.589844 221.75 262.578125 220.984375 264.933594 222.320312 L 279.371094 230.652344 C 281.722656 231.988281 282.484375 234.976562 281.152344 237.332031 C 280.195312 238.921875 278.542969 239.746094 276.890625 239.746094 Z M 276.890625 239.746094 " fill-opacity="1" fill-rule="nonzero"/><path fill="#0ea5e9" d="M 242.226562 274.410156 C 240.511719 274.410156 238.921875 273.519531 237.964844 271.992188 L 229.636719 257.554688 C 228.300781 255.203125 229.0625 252.210938 231.414062 250.878906 C 233.769531 249.542969 236.757812 250.304688 238.09375 252.65625 L 246.425781 267.09375 C 247.761719 269.449219 246.996094 272.4375 244.644531 273.773438 C 243.882812 274.21875 243.054688 274.410156 242.226562 274.410156 Z M 242.226562 274.410156 " fill-opacity="1" fill-rule="nonzero"/><path fill="#0ea5e9" d="M 194.910156 287.128906 C 192.238281 287.128906 190.011719 284.964844 190.011719 282.230469 L 190.011719 265.570312 C 190.011719 262.898438 192.175781 260.671875 194.910156 260.671875 C 197.644531 260.671875 199.804688 262.832031 199.804688 265.570312 L 199.804688 282.230469 C 199.742188 284.902344 197.582031 287.128906 194.910156 287.128906 Z M 194.910156 287.128906 " fill-opacity="1" fill-rule="nonzero"/><path fill="#0ea5e9" d="M 147.527344 274.410156 C 146.699219 274.410156 145.875 274.21875 145.109375 273.773438 C 142.757812 272.4375 141.996094 269.449219 143.328125 267.09375 L 151.660156 252.65625 C 152.996094 250.304688 155.984375 249.542969 158.339844 250.878906 C 160.691406 252.210938 161.457031 255.203125 160.121094 257.554688 L 151.789062 271.992188 C 150.835938 273.582031 149.179688 274.410156 147.527344 274.410156 Z M 147.527344 274.410156 " fill-opacity="1" fill-rule="nonzero"/><path fill="#0ea5e9" d="M 112.867188 239.746094 C 111.148438 239.746094 109.558594 238.855469 108.605469 237.332031 C 107.269531 234.976562 108.03125 231.988281 110.386719 230.652344 L 124.824219 222.320312 C 127.175781 220.984375 130.164062 221.75 131.5 224.101562 C 132.835938 226.453125 132.074219 229.445312 129.71875 230.78125 L 115.28125 239.109375 C 114.519531 239.554688 113.691406 239.746094 112.867188 239.746094 Z M 112.867188 239.746094 " fill-opacity="1" fill-rule="nonzero"/><path fill="#0ea5e9" d="M 116.871094 192.429688 L 100.210938 192.429688 C 97.539062 192.429688 95.3125 190.265625 95.3125 187.53125 C 95.3125 184.859375 97.472656 182.632812 100.210938 182.632812 L 116.871094 182.632812 C 119.542969 182.632812 121.769531 184.796875 121.769531 187.53125 C 121.769531 190.203125 119.542969 192.429688 116.871094 192.429688 Z M 116.871094 192.429688 " fill-opacity="1" fill-rule="nonzero"/><path fill="#0ea5e9" d="M 127.304688 153.378906 C 126.476562 153.378906 125.648438 153.1875 124.886719 152.742188 L 110.449219 144.410156 C 108.097656 143.074219 107.332031 140.085938 108.667969 137.734375 C 110.003906 135.378906 112.992188 134.617188 115.347656 135.953125 L 129.785156 144.285156 C 132.136719 145.621094 132.898438 148.609375 131.5625 150.960938 C 130.609375 152.550781 129.019531 153.378906 127.304688 153.378906 Z M 127.304688 153.378906 " fill-opacity="1" fill-rule="nonzero"/><path fill="#0ea5e9" d="M 155.859375 124.824219 C 154.140625 124.824219 152.550781 123.933594 151.597656 122.40625 L 143.265625 107.96875 C 141.929688 105.617188 142.695312 102.625 145.046875 101.289062 C 147.398438 99.953125 150.390625 100.71875 151.726562 103.070312 L 160.058594 117.507812 C 161.390625 119.863281 160.628906 122.851562 158.277344 124.1875 C 157.511719 124.632812 156.6875 124.824219 155.859375 124.824219 Z M 155.859375 124.824219 " fill-opacity="1" fill-rule="nonzero"/></svg>