<svg xmlns="http://www.w3.org/2000/svg" xmlns:xlink="http://www.w3.org/1999/xlink" width="500" zoomAndPan="magnify" viewBox="0 0 375 374.999991" height="500" preserveAspectRatio="xMidYMid meet" version="1.0"><defs><clipPath id="e38e6ad300"><path d="M 137 37.5 L 148 37.5 L 148 78 L 137 78 Z M 137 37.5 " clip-rule="nonzero"/></clipPath><clipPath id="cee2f4ab5d"><path d="M 182 37.5 L 193 37.5 L 193 78 L 182 78 Z M 182 37.5 " clip-rule="nonzero"/></clipPath><clipPath id="1825955e37"><path d="M 227 37.5 L 238 37.5 L 238 78 L 227 78 Z M 227 37.5 " clip-rule="nonzero"/></clipPath><clipPath id="ffa990785f"><path d="M 37.5 227 L 78 227 L 78 238 L 37.5 238 Z M 37.5 227 " clip-rule="nonzero"/></clipPath><clipPath id="9024cd68a7"><path d="M 37.5 182 L 78 182 L 78 193 L 37.5 193 Z M 37.5 182 " clip-rule="nonzero"/></clipPath><clipPath id="e2d7920661"><path d="M 37.5 137 L 78 137 L 78 148 L 37.5 148 Z M 37.5 137 " clip-rule="nonzero"/></clipPath><clipPath id="0c5f3f9319"><path d="M 227 297 L 238 297 L 238 337.5 L 227 337.5 Z M 227 297 " clip-rule="nonzero"/></clipPath><clipPath id="1663a718a8"><path d="M 182 297 L 193 297 L 193 337.5 L 182 337.5 Z M 182 297 " clip-rule="nonzero"/></clipPath><clipPath id="d898ca1986"><path d="M 137 297 L 148 297 L 148 337.5 L 137 337.5 Z M 137 297 " clip-rule="nonzero"/></clipPath><clipPath id="cb636ec5be"><path d="M 297 137 L 337.5 137 L 337.5 148 L 297 148 Z M 297 137 " clip-rule="nonzero"/></clipPath><clipPath id="35659da00c"><path d="M 297 182 L 337.5 182 L 337.5 193 L 297 193 Z M 297 182 " clip-rule="nonzero"/></clipPath><clipPath id="58ba4ccb71"><path d="M 297 227 L 337.5 227 L 337.5 238 L 297 238 Z M 297 227 " clip-rule="nonzero"/></clipPath></defs><path fill="#0ea5e9" d="M 124.316406 284.363281 L 250.683594 284.363281 C 251.789062 284.363281 252.886719 284.308594 253.984375 284.199219 C 255.082031 284.089844 256.171875 283.925781 257.253906 283.710938 C 258.335938 283.496094 259.402344 283.226562 260.457031 282.90625 C 261.511719 282.585938 262.550781 282.214844 263.566406 281.789062 C 264.585938 281.367188 265.582031 280.898438 266.554688 280.375 C 267.527344 279.855469 268.46875 279.289062 269.386719 278.675781 C 270.304688 278.0625 271.1875 277.40625 272.039062 276.707031 C 272.894531 276.007812 273.707031 275.269531 274.488281 274.488281 C 275.269531 273.707031 276.007812 272.894531 276.707031 272.039062 C 277.40625 271.1875 278.0625 270.304688 278.675781 269.386719 C 279.289062 268.46875 279.855469 267.527344 280.375 266.554688 C 280.898438 265.582031 281.367188 264.585938 281.789062 263.566406 C 282.214844 262.550781 282.585938 261.511719 282.90625 260.457031 C 283.226562 259.402344 283.496094 258.335938 283.710938 257.253906 C 283.925781 256.171875 284.089844 255.082031 284.199219 253.984375 C 284.308594 252.886719 284.363281 251.789062 284.363281 250.683594 L 284.363281 124.316406 C 284.363281 123.210938 284.308594 122.113281 284.199219 121.015625 C 284.089844 119.917969 283.925781 118.828125 283.710938 117.746094 C 283.496094 116.664062 283.226562 115.597656 282.90625 114.542969 C 282.585938 113.488281 282.214844 112.449219 281.789062 111.433594 C 281.367188 110.414062 280.898438 109.417969 280.375 108.445312 C 279.855469 107.472656 279.289062 106.53125 278.675781 105.613281 C 278.0625 104.695312 277.40625 103.8125 276.707031 102.960938 C 276.007812 102.105469 275.269531 101.292969 274.488281 100.511719 C 273.707031 99.730469 272.894531 98.992188 272.039062 98.292969 C 271.1875 97.59375 270.304688 96.9375 269.386719 96.324219 C 268.46875 95.710938 267.527344 95.144531 266.554688 94.625 C 265.582031 94.101562 264.585938 93.632812 263.566406 93.210938 C 262.550781 92.785156 261.511719 92.414062 260.457031 92.09375 C 259.402344 91.773438 258.335938 91.503906 257.253906 91.289062 C 256.171875 91.074219 255.082031 90.910156 253.984375 90.800781 C 252.886719 90.691406 251.789062 90.636719 250.683594 90.636719 L 124.316406 90.636719 C 123.210938 90.636719 122.113281 90.691406 121.015625 90.800781 C 119.917969 90.910156 118.828125 91.074219 117.746094 91.289062 C 116.664062 91.503906 115.597656 91.773438 114.542969 92.09375 C 113.488281 92.414062 112.449219 92.785156 111.433594 93.210938 C 110.414062 93.632812 109.417969 94.101562 108.445312 94.625 C 107.472656 95.144531 106.53125 95.710938 105.613281 96.324219 C 104.695312 96.9375 103.8125 97.59375 102.960938 98.292969 C 102.105469 98.992188 101.292969 99.730469 100.511719 100.511719 C 99.730469 101.292969 98.992188 102.105469 98.292969 102.960938 C 97.59375 103.8125 96.9375 104.695312 96.324219 105.613281 C 95.710938 106.53125 95.144531 107.472656 94.625 108.445312 C 94.101562 109.417969 93.632812 110.414062 93.210938 111.433594 C 92.785156 112.449219 92.414062 113.488281 92.09375 114.542969 C 91.773438 115.597656 91.503906 116.664062 91.289062 117.746094 C 91.074219 118.828125 90.910156 119.917969 90.800781 121.015625 C 90.691406 122.113281 90.636719 123.210938 90.636719 124.316406 L 90.636719 250.683594 C 90.636719 251.789062 90.691406 252.886719 90.800781 253.984375 C 90.910156 255.082031 91.074219 256.171875 91.289062 257.253906 C 91.503906 258.335938 91.773438 259.402344 92.09375 260.457031 C 92.414062 261.511719 92.785156 262.550781 93.210938 263.566406 C 93.632812 264.585938 94.101562 265.582031 94.625 266.554688 C 95.144531 267.527344 95.710938 268.46875 96.324219 269.386719 C 96.9375 270.304688 97.59375 271.1875 98.292969 272.039062 C 98.992188 272.894531 99.730469 273.707031 100.511719 274.488281 C 101.292969 275.269531 102.105469 276.007812 102.960938 276.707031 C 103.8125 277.40625 104.695312 278.0625 105.613281 278.675781 C 106.53125 279.289062 107.472656 279.855469 108.445312 280.375 C 109.417969 280.898438 110.414062 281.367188 111.433594 281.789062 C 112.449219 282.214844 113.488281 282.585938 114.542969 282.90625 C 115.597656 283.226562 116.664062 283.496094 117.746094 283.710938 C 118.828125 283.925781 119.917969 284.089844 121.015625 284.199219 C 122.113281 284.308594 123.210938 284.363281 124.316406 284.363281 Z M 100.636719 124.316406 C 100.636719 123.539062 100.675781 122.765625 100.75 121.996094 C 100.828125 121.222656 100.941406 120.457031 101.09375 119.699219 C 101.246094 118.9375 101.4375 118.1875 101.660156 117.445312 C 101.886719 116.703125 102.148438 115.972656 102.445312 115.257812 C 102.742188 114.542969 103.074219 113.84375 103.441406 113.160156 C 103.804688 112.476562 104.203125 111.8125 104.636719 111.167969 C 105.066406 110.523438 105.527344 109.898438 106.019531 109.300781 C 106.511719 108.703125 107.03125 108.128906 107.578125 107.578125 C 108.128906 107.03125 108.703125 106.511719 109.300781 106.019531 C 109.898438 105.527344 110.523438 105.066406 111.167969 104.636719 C 111.8125 104.203125 112.476562 103.804688 113.160156 103.441406 C 113.84375 103.074219 114.542969 102.742188 115.257812 102.445312 C 115.972656 102.148438 116.703125 101.886719 117.445312 101.660156 C 118.1875 101.4375 118.9375 101.246094 119.699219 101.09375 C 120.457031 100.941406 121.222656 100.828125 121.996094 100.75 C 122.765625 100.675781 123.539062 100.636719 124.316406 100.636719 L 250.683594 100.636719 C 251.460938 100.636719 252.234375 100.675781 253.003906 100.75 C 253.777344 100.828125 254.542969 100.941406 255.300781 101.09375 C 256.0625 101.246094 256.8125 101.4375 257.554688 101.660156 C 258.296875 101.886719 259.027344 102.148438 259.742188 102.445312 C 260.457031 102.742188 261.15625 103.074219 261.839844 103.441406 C 262.523438 103.804688 263.1875 104.203125 263.832031 104.636719 C 264.476562 105.066406 265.101562 105.527344 265.699219 106.019531 C 266.296875 106.511719 266.871094 107.03125 267.421875 107.578125 C 267.96875 108.128906 268.488281 108.703125 268.980469 109.300781 C 269.472656 109.898438 269.933594 110.523438 270.363281 111.167969 C 270.796875 111.8125 271.195312 112.476562 271.558594 113.160156 C 271.925781 113.84375 272.257812 114.542969 272.554688 115.257812 C 272.851562 115.972656 273.113281 116.703125 273.339844 117.445312 C 273.5625 118.1875 273.753906 118.9375 273.90625 119.699219 C 274.058594 120.457031 274.171875 121.222656 274.25 121.996094 C 274.324219 122.765625 274.363281 123.539062 274.363281 124.316406 L 274.363281 250.683594 C 274.363281 251.460938 274.324219 252.234375 274.25 253.003906 C 274.171875 253.777344 274.058594 254.542969 273.90625 255.300781 C 273.753906 256.0625 273.5625 256.8125 273.339844 257.554688 C 273.113281 258.296875 272.851562 259.027344 272.554688 259.742188 C 272.257812 260.457031 271.925781 261.15625 271.558594 261.839844 C 271.195312 262.523438 270.796875 263.1875 270.363281 263.832031 C 269.933594 264.476562 269.472656 265.101562 268.980469 265.699219 C 268.488281 266.296875 267.96875 266.871094 267.421875 267.421875 C 266.871094 267.96875 266.296875 268.488281 265.699219 268.980469 C 265.101562 269.472656 264.476562 269.933594 263.832031 270.363281 C 263.1875 270.796875 262.523438 271.195312 261.839844 271.558594 C 261.160156 271.925781 260.457031 272.257812 259.742188 272.554688 C 259.027344 272.851562 258.296875 273.113281 257.554688 273.339844 C 256.8125 273.5625 256.0625 273.753906 255.300781 273.90625 C 254.542969 274.058594 253.777344 274.171875 253.003906 274.25 C 252.234375 274.324219 251.460938 274.363281 250.683594 274.363281 L 124.316406 274.363281 C 123.539062 274.363281 122.765625 274.324219 121.996094 274.25 C 121.222656 274.171875 120.457031 274.058594 119.699219 273.90625 C 118.9375 273.753906 118.1875 273.5625 117.445312 273.339844 C 116.703125 273.113281 115.972656 272.851562 115.257812 272.554688 C 114.542969 272.257812 113.84375 271.925781 113.160156 271.558594 C 112.476562 271.195312 111.8125 270.796875 111.167969 270.363281 C 110.523438 269.933594 109.898438 269.472656 109.300781 268.980469 C 108.703125 268.488281 108.128906 267.96875 107.578125 267.421875 C 107.03125 266.871094 106.511719 266.296875 106.019531 265.699219 C 105.527344 265.101562 105.066406 264.476562 104.636719 263.832031 C 104.203125 263.1875 103.804688 262.523438 103.441406 261.839844 C 103.074219 261.160156 102.742188 260.457031 102.445312 259.742188 C 102.148438 259.027344 101.886719 258.296875 101.660156 257.554688 C 101.4375 256.8125 101.246094 256.0625 101.09375 255.300781 C 100.941406 254.542969 100.828125 253.777344 100.75 253.003906 C 100.675781 252.234375 100.636719 251.460938 100.636719 250.683594 Z M 100.636719 124.316406 " fill-opacity="1" fill-rule="nonzero"/><path fill="#0ea5e9" d="M 149.304688 248.898438 L 225.695312 248.898438 C 226.453125 248.898438 227.210938 248.859375 227.96875 248.785156 C 228.726562 248.710938 229.476562 248.597656 230.21875 248.449219 C 230.964844 248.300781 231.703125 248.117188 232.429688 247.894531 C 233.15625 247.675781 233.871094 247.417969 234.570312 247.125 C 235.273438 246.835938 235.957031 246.511719 236.628906 246.152344 C 237.296875 245.792969 237.949219 245.402344 238.582031 244.980469 C 239.210938 244.558594 239.820312 244.105469 240.410156 243.625 C 240.996094 243.144531 241.558594 242.632812 242.097656 242.097656 C 242.632812 241.558594 243.144531 240.996094 243.625 240.410156 C 244.105469 239.820312 244.558594 239.210938 244.980469 238.582031 C 245.402344 237.949219 245.792969 237.296875 246.152344 236.628906 C 246.511719 235.957031 246.835938 235.273438 247.125 234.570312 C 247.417969 233.871094 247.675781 233.15625 247.894531 232.429688 C 248.117188 231.703125 248.300781 230.964844 248.449219 230.21875 C 248.597656 229.476562 248.710938 228.726562 248.785156 227.96875 C 248.859375 227.210938 248.898438 226.453125 248.898438 225.695312 L 248.898438 149.304688 C 248.898438 148.546875 248.859375 147.789062 248.785156 147.03125 C 248.710938 146.273438 248.597656 145.523438 248.449219 144.78125 C 248.300781 144.035156 248.117188 143.296875 247.894531 142.570312 C 247.675781 141.84375 247.417969 141.128906 247.125 140.429688 C 246.835938 139.726562 246.511719 139.042969 246.152344 138.371094 C 245.792969 137.703125 245.402344 137.050781 244.980469 136.417969 C 244.558594 135.789062 244.105469 135.179688 243.625 134.589844 C 243.144531 134.003906 242.632812 133.441406 242.097656 132.902344 C 241.558594 132.367188 240.996094 131.855469 240.410156 131.375 C 239.820312 130.894531 239.210938 130.441406 238.582031 130.019531 C 237.949219 129.597656 237.296875 129.207031 236.628906 128.847656 C 235.957031 128.488281 235.273438 128.164062 234.570312 127.871094 C 233.871094 127.582031 233.15625 127.324219 232.429688 127.105469 C 231.703125 126.882812 230.964844 126.699219 230.21875 126.550781 C 229.476562 126.402344 228.726562 126.289062 227.96875 126.214844 C 227.210938 126.140625 226.453125 126.101562 225.695312 126.101562 L 149.304688 126.101562 C 148.546875 126.101562 147.789062 126.140625 147.03125 126.214844 C 146.273438 126.289062 145.523438 126.402344 144.78125 126.550781 C 144.035156 126.699219 143.296875 126.882812 142.570312 127.105469 C 141.84375 127.324219 141.128906 127.582031 140.429688 127.871094 C 139.726562 128.164062 139.042969 128.488281 138.371094 128.847656 C 137.703125 129.207031 137.050781 129.597656 136.417969 130.019531 C 135.789062 130.441406 135.179688 130.894531 134.589844 131.375 C 134.003906 131.855469 133.441406 132.367188 132.902344 132.902344 C 132.367188 133.441406 131.855469 134.003906 131.375 134.589844 C 130.894531 135.179688 130.441406 135.789062 130.019531 136.417969 C 129.597656 137.050781 129.207031 137.703125 128.847656 138.371094 C 128.488281 139.042969 128.164062 139.726562 127.871094 140.429688 C 127.582031 141.128906 127.324219 141.84375 127.105469 142.570312 C 126.882812 143.296875 126.699219 144.035156 126.550781 144.78125 C 126.402344 145.523438 126.289062 146.273438 126.214844 147.03125 C 126.140625 147.789062 126.101562 148.546875 126.101562 149.304688 L 126.101562 225.695312 C 126.101562 226.453125 126.140625 227.210938 126.214844 227.96875 C 126.289062 228.726562 126.402344 229.476562 126.550781 230.21875 C 126.699219 230.964844 126.882812 231.703125 127.105469 232.429688 C 127.324219 233.15625 127.582031 233.871094 127.875 234.570312 C 128.164062 235.273438 128.488281 235.957031 128.847656 236.628906 C 129.207031 237.296875 129.597656 237.949219 130.019531 238.582031 C 130.441406 239.210938 130.894531 239.820312 131.375 240.410156 C 131.855469 240.996094 132.367188 241.558594 132.902344 242.097656 C 133.441406 242.632812 134.003906 243.144531 134.589844 243.625 C 135.179688 244.105469 135.789062 244.558594 136.417969 244.980469 C 137.050781 245.402344 137.703125 245.792969 138.371094 246.152344 C 139.042969 246.511719 139.726562 246.835938 140.429688 247.125 C 141.128906 247.417969 141.84375 247.675781 142.570312 247.894531 C 143.296875 248.117188 144.035156 248.300781 144.78125 248.449219 C 145.523438 248.597656 146.273438 248.710938 147.03125 248.785156 C 147.789062 248.859375 148.546875 248.898438 149.304688 248.898438 Z M 136.101562 149.304688 C 136.101562 148.4375 136.1875 147.578125 136.355469 146.730469 C 136.523438 145.878906 136.777344 145.054688 137.109375 144.253906 C 137.441406 143.453125 137.847656 142.691406 138.328125 141.972656 C 138.808594 141.25 139.359375 140.582031 139.96875 139.96875 C 140.582031 139.359375 141.25 138.808594 141.972656 138.328125 C 142.691406 137.847656 143.453125 137.441406 144.253906 137.109375 C 145.054688 136.777344 145.878906 136.523438 146.730469 136.355469 C 147.578125 136.1875 148.4375 136.101562 149.304688 136.101562 L 225.695312 136.101562 C 226.5625 136.101562 227.421875 136.1875 228.269531 136.355469 C 229.121094 136.523438 229.945312 136.777344 230.746094 137.109375 C 231.546875 137.441406 232.308594 137.847656 233.027344 138.328125 C 233.75 138.808594 234.417969 139.359375 235.03125 139.96875 C 235.640625 140.582031 236.191406 141.25 236.671875 141.972656 C 237.152344 142.691406 237.558594 143.453125 237.890625 144.253906 C 238.222656 145.054688 238.476562 145.878906 238.644531 146.730469 C 238.8125 147.578125 238.898438 148.4375 238.898438 149.304688 L 238.898438 225.695312 C 238.898438 226.5625 238.8125 227.421875 238.644531 228.269531 C 238.476562 229.121094 238.222656 229.945312 237.890625 230.746094 C 237.558594 231.546875 237.152344 232.308594 236.671875 233.027344 C 236.191406 233.75 235.640625 234.417969 235.03125 235.03125 C 234.417969 235.640625 233.75 236.191406 233.027344 236.671875 C 232.308594 237.152344 231.546875 237.558594 230.746094 237.890625 C 229.945312 238.222656 229.121094 238.476562 228.269531 238.644531 C 227.421875 238.8125 226.5625 238.898438 225.695312 238.898438 L 149.304688 238.898438 C 148.4375 238.898438 147.578125 238.8125 146.730469 238.644531 C 145.878906 238.476562 145.054688 238.222656 144.253906 237.890625 C 143.453125 237.558594 142.691406 237.152344 141.972656 236.671875 C 141.25 236.191406 140.582031 235.640625 139.96875 235.03125 C 139.359375 234.417969 138.808594 233.75 138.328125 233.027344 C 137.847656 232.308594 137.441406 231.546875 137.109375 230.746094 C 136.777344 229.945312 136.523438 229.121094 136.355469 228.269531 C 136.1875 227.421875 136.101562 226.5625 136.101562 225.695312 Z M 136.101562 149.304688 " fill-opacity="1" fill-rule="nonzero"/><g clip-path="url(#e38e6ad300)"><path fill="#0ea5e9" d="M 142.636719 77.191406 C 142.964844 77.191406 143.289062 77.15625 143.609375 77.09375 C 143.933594 77.03125 144.246094 76.933594 144.546875 76.808594 C 144.851562 76.683594 145.140625 76.53125 145.414062 76.347656 C 145.6875 76.164062 145.9375 75.957031 146.171875 75.726562 C 146.402344 75.492188 146.609375 75.242188 146.792969 74.96875 C 146.976562 74.695312 147.128906 74.40625 147.253906 74.101562 C 147.378906 73.800781 147.476562 73.488281 147.539062 73.164062 C 147.601562 72.84375 147.636719 72.519531 147.636719 72.191406 L 147.636719 42.5 C 147.636719 42.171875 147.601562 41.847656 147.539062 41.523438 C 147.476562 41.203125 147.378906 40.890625 147.253906 40.585938 C 147.128906 40.285156 146.976562 39.996094 146.792969 39.722656 C 146.609375 39.449219 146.402344 39.195312 146.171875 38.964844 C 145.9375 38.730469 145.6875 38.523438 145.414062 38.34375 C 145.140625 38.160156 144.851562 38.007812 144.546875 37.878906 C 144.246094 37.753906 143.933594 37.660156 143.609375 37.597656 C 143.289062 37.53125 142.964844 37.5 142.636719 37.5 C 142.308594 37.5 141.980469 37.53125 141.660156 37.597656 C 141.335938 37.660156 141.023438 37.753906 140.722656 37.878906 C 140.417969 38.007812 140.128906 38.160156 139.855469 38.34375 C 139.585938 38.523438 139.332031 38.730469 139.097656 38.964844 C 138.867188 39.195312 138.660156 39.449219 138.476562 39.722656 C 138.296875 39.996094 138.140625 40.285156 138.015625 40.585938 C 137.890625 40.890625 137.796875 41.203125 137.730469 41.523438 C 137.667969 41.847656 137.636719 42.171875 137.636719 42.5 L 137.636719 72.191406 C 137.636719 72.519531 137.667969 72.84375 137.730469 73.164062 C 137.796875 73.488281 137.890625 73.800781 138.015625 74.101562 C 138.140625 74.40625 138.296875 74.695312 138.476562 74.96875 C 138.660156 75.242188 138.867188 75.492188 139.097656 75.726562 C 139.332031 75.957031 139.585938 76.164062 139.855469 76.347656 C 140.128906 76.53125 140.417969 76.683594 140.722656 76.808594 C 141.023438 76.933594 141.335938 77.03125 141.660156 77.09375 C 141.980469 77.15625 142.308594 77.191406 142.636719 77.191406 Z M 142.636719 77.191406 " fill-opacity="1" fill-rule="nonzero"/></g><g clip-path="url(#cee2f4ab5d)"><path fill="#0ea5e9" d="M 187.5 77.191406 C 187.828125 77.191406 188.152344 77.15625 188.476562 77.09375 C 188.796875 77.03125 189.109375 76.933594 189.414062 76.808594 C 189.714844 76.683594 190.003906 76.53125 190.277344 76.347656 C 190.550781 76.164062 190.804688 75.957031 191.035156 75.726562 C 191.269531 75.492188 191.476562 75.242188 191.65625 74.96875 C 191.839844 74.695312 191.992188 74.40625 192.121094 74.101562 C 192.246094 73.800781 192.339844 73.488281 192.402344 73.164062 C 192.46875 72.84375 192.5 72.519531 192.5 72.191406 L 192.5 42.5 C 192.5 42.171875 192.46875 41.847656 192.402344 41.523438 C 192.339844 41.203125 192.246094 40.890625 192.121094 40.585938 C 191.992188 40.285156 191.839844 39.996094 191.65625 39.722656 C 191.476562 39.449219 191.269531 39.195312 191.035156 38.964844 C 190.804688 38.730469 190.550781 38.523438 190.277344 38.34375 C 190.003906 38.160156 189.714844 38.007812 189.414062 37.878906 C 189.109375 37.753906 188.796875 37.660156 188.476562 37.597656 C 188.152344 37.53125 187.828125 37.5 187.5 37.5 C 187.171875 37.5 186.847656 37.53125 186.523438 37.597656 C 186.203125 37.660156 185.890625 37.753906 185.585938 37.878906 C 185.285156 38.007812 184.996094 38.160156 184.722656 38.34375 C 184.449219 38.523438 184.195312 38.730469 183.964844 38.964844 C 183.730469 39.195312 183.523438 39.449219 183.34375 39.722656 C 183.160156 39.996094 183.007812 40.285156 182.878906 40.585938 C 182.753906 40.890625 182.660156 41.203125 182.597656 41.523438 C 182.53125 41.847656 182.5 42.171875 182.5 42.5 L 182.5 72.191406 C 182.5 72.519531 182.53125 72.84375 182.597656 73.164062 C 182.660156 73.488281 182.753906 73.800781 182.878906 74.101562 C 183.007812 74.40625 183.160156 74.695312 183.34375 74.96875 C 183.523438 75.242188 183.730469 75.492188 183.964844 75.726562 C 184.195312 75.957031 184.449219 76.164062 184.722656 76.347656 C 184.996094 76.53125 185.285156 76.683594 185.585938 76.808594 C 185.890625 76.933594 186.203125 77.03125 186.523438 77.09375 C 186.847656 77.15625 187.171875 77.191406 187.5 77.191406 Z M 187.5 77.191406 " fill-opacity="1" fill-rule="nonzero"/></g><g clip-path="url(#1825955e37)"><path fill="#0ea5e9" d="M 232.363281 77.191406 C 232.691406 77.191406 233.019531 77.15625 233.339844 77.09375 C 233.664062 77.03125 233.976562 76.933594 234.277344 76.808594 C 234.582031 76.683594 234.871094 76.53125 235.144531 76.347656 C 235.414062 76.164062 235.667969 75.957031 235.902344 75.726562 C 236.132812 75.492188 236.339844 75.242188 236.523438 74.96875 C 236.703125 74.695312 236.859375 74.40625 236.984375 74.101562 C 237.109375 73.800781 237.203125 73.488281 237.269531 73.164062 C 237.332031 72.84375 237.363281 72.519531 237.363281 72.191406 L 237.363281 42.5 C 237.363281 42.171875 237.332031 41.847656 237.269531 41.523438 C 237.203125 41.203125 237.109375 40.890625 236.984375 40.585938 C 236.859375 40.285156 236.703125 39.996094 236.523438 39.722656 C 236.339844 39.449219 236.132812 39.195312 235.902344 38.964844 C 235.667969 38.730469 235.414062 38.523438 235.144531 38.34375 C 234.871094 38.160156 234.582031 38.007812 234.277344 37.878906 C 233.976562 37.753906 233.664062 37.660156 233.339844 37.597656 C 233.019531 37.53125 232.691406 37.5 232.363281 37.5 C 232.035156 37.5 231.710938 37.53125 231.390625 37.597656 C 231.066406 37.660156 230.753906 37.753906 230.453125 37.878906 C 230.148438 38.007812 229.859375 38.160156 229.585938 38.34375 C 229.3125 38.523438 229.0625 38.730469 228.828125 38.964844 C 228.597656 39.195312 228.390625 39.449219 228.207031 39.722656 C 228.023438 39.996094 227.871094 40.285156 227.746094 40.585938 C 227.621094 40.890625 227.523438 41.203125 227.460938 41.523438 C 227.398438 41.847656 227.363281 42.171875 227.363281 42.5 L 227.363281 72.191406 C 227.363281 72.519531 227.398438 72.84375 227.460938 73.164062 C 227.523438 73.488281 227.621094 73.800781 227.746094 74.101562 C 227.871094 74.40625 228.023438 74.695312 228.207031 74.96875 C 228.390625 75.242188 228.597656 75.492188 228.828125 75.726562 C 229.0625 75.957031 229.3125 76.164062 229.585938 76.347656 C 229.859375 76.53125 230.148438 76.683594 230.453125 76.808594 C 230.753906 76.933594 231.066406 77.03125 231.390625 77.09375 C 231.710938 77.15625 232.035156 77.191406 232.363281 77.191406 Z M 232.363281 77.191406 " fill-opacity="1" fill-rule="nonzero"/></g><g clip-path="url(#ffa990785f)"><path fill="#0ea5e9" d="M 42.5 237.363281 L 72.191406 237.363281 C 72.519531 237.363281 72.84375 237.332031 73.164062 237.269531 C 73.488281 237.203125 73.800781 237.109375 74.101562 236.984375 C 74.40625 236.859375 74.695312 236.703125 74.96875 236.523438 C 75.242188 236.339844 75.492188 236.132812 75.726562 235.902344 C 75.957031 235.667969 76.164062 235.414062 76.347656 235.144531 C 76.53125 234.871094 76.683594 234.582031 76.808594 234.277344 C 76.933594 233.976562 77.03125 233.664062 77.09375 233.339844 C 77.15625 233.019531 77.191406 232.691406 77.191406 232.363281 C 77.191406 232.035156 77.15625 231.710938 77.09375 231.390625 C 77.03125 231.066406 76.933594 230.753906 76.808594 230.453125 C 76.683594 230.148438 76.53125 229.859375 76.347656 229.585938 C 76.164062 229.3125 75.957031 229.0625 75.726562 228.828125 C 75.492188 228.597656 75.242188 228.390625 74.96875 228.207031 C 74.695312 228.023438 74.40625 227.871094 74.101562 227.746094 C 73.800781 227.621094 73.488281 227.523438 73.164062 227.460938 C 72.84375 227.398438 72.519531 227.363281 72.191406 227.363281 L 42.5 227.363281 C 42.171875 227.363281 41.847656 227.398438 41.523438 227.460938 C 41.203125 227.523438 40.890625 227.621094 40.585938 227.746094 C 40.285156 227.871094 39.996094 228.023438 39.722656 228.207031 C 39.449219 228.390625 39.195312 228.597656 38.964844 228.828125 C 38.730469 229.0625 38.523438 229.3125 38.34375 229.585938 C 38.160156 229.859375 38.007812 230.148438 37.878906 230.453125 C 37.753906 230.753906 37.660156 231.066406 37.597656 231.390625 C 37.53125 231.710938 37.5 232.035156 37.5 232.363281 C 37.5 232.691406 37.53125 233.019531 37.597656 233.339844 C 37.660156 233.664062 37.753906 233.976562 37.878906 234.277344 C 38.007812 234.582031 38.160156 234.871094 38.34375 235.144531 C 38.523438 235.414062 38.730469 235.667969 38.964844 235.902344 C 39.195312 236.132812 39.449219 236.339844 39.722656 236.523438 C 39.996094 236.703125 40.285156 236.859375 40.585938 236.984375 C 40.890625 237.109375 41.203125 237.203125 41.523438 237.269531 C 41.847656 237.332031 42.171875 237.363281 42.5 237.363281 Z M 42.5 237.363281 " fill-opacity="1" fill-rule="nonzero"/></g><g clip-path="url(#9024cd68a7)"><path fill="#0ea5e9" d="M 42.5 192.5 L 72.191406 192.5 C 72.519531 192.5 72.84375 192.46875 73.164062 192.402344 C 73.488281 192.339844 73.800781 192.246094 74.101562 192.121094 C 74.40625 191.992188 74.695312 191.839844 74.96875 191.65625 C 75.242188 191.476562 75.492188 191.269531 75.726562 191.035156 C 75.957031 190.804688 76.164062 190.550781 76.347656 190.277344 C 76.53125 190.003906 76.683594 189.714844 76.808594 189.414062 C 76.933594 189.109375 77.03125 188.796875 77.09375 188.476562 C 77.15625 188.152344 77.191406 187.828125 77.191406 187.5 C 77.191406 187.171875 77.15625 186.847656 77.09375 186.523438 C 77.03125 186.203125 76.933594 185.890625 76.808594 185.585938 C 76.683594 185.285156 76.53125 184.996094 76.347656 184.722656 C 76.164062 184.449219 75.957031 184.195312 75.726562 183.964844 C 75.492188 183.730469 75.242188 183.523438 74.96875 183.34375 C 74.695312 183.160156 74.40625 183.007812 74.101562 182.878906 C 73.800781 182.753906 73.488281 182.660156 73.164062 182.597656 C 72.84375 182.53125 72.519531 182.5 72.191406 182.5 L 42.5 182.5 C 42.171875 182.5 41.847656 182.53125 41.523438 182.597656 C 41.203125 182.660156 40.890625 182.753906 40.585938 182.878906 C 40.285156 183.007812 39.996094 183.160156 39.722656 183.34375 C 39.449219 183.523438 39.195312 183.730469 38.964844 183.964844 C 38.730469 184.195312 38.523438 184.449219 38.34375 184.722656 C 38.160156 184.996094 38.007812 185.285156 37.878906 185.585938 C 37.753906 185.890625 37.660156 186.203125 37.597656 186.523438 C 37.53125 186.847656 37.5 187.171875 37.5 187.5 C 37.5 187.828125 37.53125 188.152344 37.597656 188.476562 C 37.660156 188.796875 37.753906 189.109375 37.878906 189.414062 C 38.007812 189.714844 38.160156 190.003906 38.34375 190.277344 C 38.523438 190.550781 38.730469 190.804688 38.964844 191.035156 C 39.195312 191.269531 39.449219 191.476562 39.722656 191.65625 C 39.996094 191.839844 40.285156 191.992188 40.585938 192.121094 C 40.890625 192.246094 41.203125 192.339844 41.523438 192.402344 C 41.847656 192.46875 42.171875 192.5 42.5 192.5 Z M 42.5 192.5 " fill-opacity="1" fill-rule="nonzero"/></g><g clip-path="url(#e2d7920661)"><path fill="#0ea5e9" d="M 42.5 147.636719 L 72.191406 147.636719 C 72.519531 147.636719 72.84375 147.601562 73.164062 147.539062 C 73.488281 147.476562 73.800781 147.378906 74.101562 147.253906 C 74.40625 147.128906 74.695312 146.976562 74.96875 146.792969 C 75.242188 146.609375 75.492188 146.402344 75.726562 146.171875 C 75.957031 145.9375 76.164062 145.6875 76.347656 145.414062 C 76.53125 145.140625 76.683594 144.851562 76.808594 144.546875 C 76.933594 144.246094 77.03125 143.933594 77.09375 143.609375 C 77.15625 143.289062 77.191406 142.964844 77.191406 142.636719 C 77.191406 142.308594 77.15625 141.980469 77.09375 141.660156 C 77.03125 141.335938 76.933594 141.023438 76.808594 140.722656 C 76.683594 140.417969 76.53125 140.128906 76.347656 139.855469 C 76.164062 139.585938 75.957031 139.332031 75.726562 139.097656 C 75.492188 138.867188 75.242188 138.660156 74.96875 138.476562 C 74.695312 138.296875 74.40625 138.140625 74.101562 138.015625 C 73.800781 137.890625 73.488281 137.796875 73.164062 137.730469 C 72.84375 137.667969 72.519531 137.636719 72.191406 137.636719 L 42.5 137.636719 C 42.171875 137.636719 41.847656 137.667969 41.523438 137.730469 C 41.203125 137.796875 40.890625 137.890625 40.585938 138.015625 C 40.285156 138.140625 39.996094 138.296875 39.722656 138.476562 C 39.449219 138.660156 39.195312 138.867188 38.964844 139.097656 C 38.730469 139.332031 38.523438 139.585938 38.34375 139.855469 C 38.160156 140.128906 38.007812 140.417969 37.878906 140.722656 C 37.753906 141.023438 37.660156 141.335938 37.597656 141.660156 C 37.53125 141.980469 37.5 142.308594 37.5 142.636719 C 37.5 142.964844 37.53125 143.289062 37.597656 143.609375 C 37.660156 143.933594 37.753906 144.246094 37.878906 144.546875 C 38.007812 144.851562 38.160156 145.140625 38.34375 145.414062 C 38.523438 145.6875 38.730469 145.9375 38.964844 146.171875 C 39.195312 146.402344 39.449219 146.609375 39.722656 146.792969 C 39.996094 146.976562 40.285156 147.128906 40.585938 147.253906 C 40.890625 147.378906 41.203125 147.476562 41.523438 147.539062 C 41.847656 147.601562 42.171875 147.636719 42.5 147.636719 Z M 42.5 147.636719 " fill-opacity="1" fill-rule="nonzero"/></g><g clip-path="url(#0c5f3f9319)"><path fill="#0ea5e9" d="M 227.363281 302.808594 L 227.363281 332.5 C 227.363281 332.828125 227.398438 333.152344 227.460938 333.476562 C 227.523438 333.796875 227.621094 334.109375 227.746094 334.414062 C 227.871094 334.714844 228.023438 335.003906 228.207031 335.277344 C 228.390625 335.550781 228.597656 335.804688 228.828125 336.035156 C 229.0625 336.269531 229.3125 336.476562 229.585938 336.65625 C 229.859375 336.839844 230.148438 336.992188 230.453125 337.121094 C 230.753906 337.246094 231.066406 337.339844 231.390625 337.402344 C 231.710938 337.46875 232.035156 337.5 232.363281 337.5 C 232.691406 337.5 233.019531 337.46875 233.339844 337.402344 C 233.664062 337.339844 233.976562 337.246094 234.277344 337.121094 C 234.582031 336.992188 234.871094 336.839844 235.144531 336.65625 C 235.414062 336.476562 235.667969 336.269531 235.902344 336.035156 C 236.132812 335.804688 236.339844 335.550781 236.523438 335.277344 C 236.703125 335.003906 236.859375 334.714844 236.984375 334.414062 C 237.109375 334.109375 237.203125 333.796875 237.269531 333.476562 C 237.332031 333.152344 237.363281 332.828125 237.363281 332.5 L 237.363281 302.808594 C 237.363281 302.480469 237.332031 302.15625 237.269531 301.835938 C 237.203125 301.511719 237.109375 301.199219 236.984375 300.898438 C 236.859375 300.59375 236.703125 300.304688 236.523438 300.03125 C 236.339844 299.757812 236.132812 299.507812 235.902344 299.273438 C 235.667969 299.042969 235.414062 298.835938 235.144531 298.652344 C 234.871094 298.46875 234.582031 298.316406 234.277344 298.191406 C 233.976562 298.066406 233.664062 297.96875 233.339844 297.90625 C 233.019531 297.84375 232.691406 297.808594 232.363281 297.808594 C 232.035156 297.808594 231.710938 297.84375 231.390625 297.90625 C 231.066406 297.96875 230.753906 298.066406 230.453125 298.191406 C 230.148438 298.316406 229.859375 298.46875 229.585938 298.652344 C 229.3125 298.835938 229.0625 299.042969 228.828125 299.273438 C 228.597656 299.507812 228.390625 299.757812 228.207031 300.03125 C 228.023438 300.304688 227.871094 300.59375 227.746094 300.898438 C 227.621094 301.199219 227.523438 301.511719 227.460938 301.835938 C 227.398438 302.15625 227.363281 302.480469 227.363281 302.808594 Z M 227.363281 302.808594 " fill-opacity="1" fill-rule="nonzero"/></g><g clip-path="url(#1663a718a8)"><path fill="#0ea5e9" d="M 182.5 302.808594 L 182.5 332.5 C 182.5 332.828125 182.53125 333.152344 182.597656 333.476562 C 182.660156 333.796875 182.753906 334.109375 182.878906 334.414062 C 183.007812 334.714844 183.160156 335.003906 183.34375 335.277344 C 183.523438 335.550781 183.730469 335.804688 183.964844 336.035156 C 184.195312 336.269531 184.449219 336.476562 184.722656 336.65625 C 184.996094 336.839844 185.285156 336.992188 185.585938 337.121094 C 185.890625 337.246094 186.203125 337.339844 186.523438 337.402344 C 186.847656 337.46875 187.171875 337.5 187.5 337.5 C 187.828125 337.5 188.152344 337.46875 188.476562 337.402344 C 188.796875 337.339844 189.109375 337.246094 189.414062 337.121094 C 189.714844 336.992188 190.003906 336.839844 190.277344 336.65625 C 190.550781 336.476562 190.804688 336.269531 191.035156 336.035156 C 191.269531 335.804688 191.476562 335.550781 191.65625 335.277344 C 191.839844 335.003906 191.992188 334.714844 192.121094 334.414062 C 192.246094 334.109375 192.339844 333.796875 192.402344 333.476562 C 192.46875 333.152344 192.5 332.828125 192.5 332.5 L 192.5 302.808594 C 192.5 302.480469 192.46875 302.15625 192.402344 301.835938 C 192.339844 301.511719 192.246094 301.199219 192.121094 300.898438 C 191.992188 300.59375 191.839844 300.304688 191.65625 300.03125 C 191.476562 299.757812 191.269531 299.507812 191.035156 299.273438 C 190.804688 299.042969 190.550781 298.835938 190.277344 298.652344 C 190.003906 298.46875 189.714844 298.316406 189.414062 298.191406 C 189.109375 298.066406 188.796875 297.96875 188.476562 297.90625 C 188.152344 297.84375 187.828125 297.808594 187.5 297.808594 C 187.171875 297.808594 186.847656 297.84375 186.523438 297.90625 C 186.203125 297.96875 185.890625 298.066406 185.585938 298.191406 C 185.285156 298.316406 184.996094 298.46875 184.722656 298.652344 C 184.449219 298.835938 184.195312 299.042969 183.964844 299.273438 C 183.730469 299.507812 183.523438 299.757812 183.34375 300.03125 C 183.160156 300.304688 183.007812 300.59375 182.878906 300.898438 C 182.753906 301.199219 182.660156 301.511719 182.597656 301.835938 C 182.53125 302.15625 182.5 302.480469 182.5 302.808594 Z M 182.5 302.808594 " fill-opacity="1" fill-rule="nonzero"/></g><g clip-path="url(#d898ca1986)"><path fill="#0ea5e9" d="M 137.636719 302.808594 L 137.636719 332.5 C 137.636719 332.828125 137.667969 333.152344 137.730469 333.476562 C 137.796875 333.796875 137.890625 334.109375 138.015625 334.414062 C 138.140625 334.714844 138.296875 335.003906 138.476562 335.277344 C 138.660156 335.550781 138.867188 335.804688 139.097656 336.035156 C 139.332031 336.269531 139.585938 336.476562 139.855469 336.65625 C 140.128906 336.839844 140.417969 336.992188 140.722656 337.121094 C 141.023438 337.246094 141.335938 337.339844 141.660156 337.402344 C 141.980469 337.46875 142.308594 337.5 142.636719 337.5 C 142.964844 337.5 143.289062 337.46875 143.609375 337.402344 C 143.933594 337.339844 144.246094 337.246094 144.546875 337.121094 C 144.851562 336.992188 145.140625 336.839844 145.414062 336.65625 C 145.6875 336.476562 145.9375 336.269531 146.171875 336.035156 C 146.402344 335.804688 146.609375 335.550781 146.792969 335.277344 C 146.976562 335.003906 147.128906 334.714844 147.253906 334.414062 C 147.378906 334.109375 147.476562 333.796875 147.539062 333.476562 C 147.601562 333.152344 147.636719 332.828125 147.636719 332.5 L 147.636719 302.808594 C 147.636719 302.480469 147.601562 302.15625 147.539062 301.835938 C 147.476562 301.511719 147.378906 301.199219 147.253906 300.898438 C 147.128906 300.59375 146.976562 300.304688 146.792969 300.03125 C 146.609375 299.757812 146.402344 299.507812 146.171875 299.273438 C 145.9375 299.042969 145.6875 298.835938 145.414062 298.652344 C 145.140625 298.46875 144.851562 298.316406 144.546875 298.191406 C 144.246094 298.066406 143.933594 297.96875 143.609375 297.90625 C 143.289062 297.84375 142.964844 297.808594 142.636719 297.808594 C 142.308594 297.808594 141.980469 297.84375 141.660156 297.90625 C 141.335938 297.96875 141.023438 298.066406 140.722656 298.191406 C 140.417969 298.316406 140.128906 298.46875 139.855469 298.652344 C 139.585938 298.835938 139.332031 299.042969 139.097656 299.273438 C 138.867188 299.507812 138.660156 299.757812 138.476562 300.03125 C 138.296875 300.304688 138.140625 300.59375 138.015625 300.898438 C 137.890625 301.199219 137.796875 301.511719 137.730469 301.835938 C 137.667969 302.15625 137.636719 302.480469 137.636719 302.808594 Z M 137.636719 302.808594 " fill-opacity="1" fill-rule="nonzero"/></g><g clip-path="url(#cb636ec5be)"><path fill="#0ea5e9" d="M 332.5 137.636719 L 302.808594 137.636719 C 302.480469 137.636719 302.15625 137.667969 301.835938 137.730469 C 301.511719 137.796875 301.199219 137.890625 300.898438 138.015625 C 300.59375 138.140625 300.304688 138.296875 300.03125 138.476562 C 299.757812 138.660156 299.507812 138.867188 299.273438 139.097656 C 299.042969 139.332031 298.835938 139.585938 298.652344 139.855469 C 298.46875 140.128906 298.316406 140.417969 298.191406 140.722656 C 298.066406 141.023438 297.96875 141.335938 297.90625 141.660156 C 297.84375 141.980469 297.808594 142.308594 297.808594 142.636719 C 297.808594 142.964844 297.84375 143.289062 297.90625 143.609375 C 297.96875 143.933594 298.066406 144.246094 298.191406 144.546875 C 298.316406 144.851562 298.46875 145.140625 298.652344 145.414062 C 298.835938 145.6875 299.042969 145.9375 299.273438 146.171875 C 299.507812 146.402344 299.757812 146.609375 300.03125 146.792969 C 300.304688 146.976562 300.59375 147.128906 300.898438 147.253906 C 301.199219 147.378906 301.511719 147.476562 301.835938 147.539062 C 302.15625 147.601562 302.480469 147.636719 302.808594 147.636719 L 332.5 147.636719 C 332.828125 147.636719 333.152344 147.601562 333.476562 147.539062 C 333.796875 147.476562 334.109375 147.378906 334.414062 147.253906 C 334.714844 147.128906 335.003906 146.976562 335.277344 146.792969 C 335.550781 146.609375 335.804688 146.402344 336.035156 146.171875 C 336.269531 145.9375 336.476562 145.6875 336.65625 145.414062 C 336.839844 145.140625 336.992188 144.851562 337.121094 144.546875 C 337.246094 144.246094 337.339844 143.933594 337.402344 143.609375 C 337.46875 143.289062 337.5 142.964844 337.5 142.636719 C 337.5 142.308594 337.46875 141.980469 337.402344 141.660156 C 337.339844 141.335938 337.246094 141.023438 337.121094 140.722656 C 336.992188 140.417969 336.839844 140.128906 336.65625 139.855469 C 336.476562 139.585938 336.269531 139.332031 336.035156 139.097656 C 335.804688 138.867188 335.550781 138.660156 335.277344 138.476562 C 335.003906 138.296875 334.714844 138.140625 334.414062 138.015625 C 334.109375 137.890625 333.796875 137.796875 333.476562 137.730469 C 333.152344 137.667969 332.828125 137.636719 332.5 137.636719 Z M 332.5 137.636719 " fill-opacity="1" fill-rule="nonzero"/></g><g clip-path="url(#35659da00c)"><path fill="#0ea5e9" d="M 332.5 182.5 L 302.808594 182.5 C 302.480469 182.5 302.15625 182.53125 301.835938 182.597656 C 301.511719 182.660156 301.199219 182.753906 300.898438 182.878906 C 300.59375 183.007812 300.304688 183.160156 300.03125 183.34375 C 299.757812 183.523438 299.507812 183.730469 299.273438 183.964844 C 299.042969 184.195312 298.835938 184.449219 298.652344 184.722656 C 298.46875 184.996094 298.316406 185.285156 298.191406 185.585938 C 298.066406 185.890625 297.96875 186.203125 297.90625 186.523438 C 297.84375 186.847656 297.808594 187.171875 297.808594 187.5 C 297.808594 187.828125 297.84375 188.152344 297.90625 188.476562 C 297.96875 188.796875 298.066406 189.109375 298.191406 189.414062 C 298.316406 189.714844 298.46875 190.003906 298.652344 190.277344 C 298.835938 190.550781 299.042969 190.804688 299.273438 191.035156 C 299.507812 191.269531 299.757812 191.476562 300.03125 191.65625 C 300.304688 191.839844 300.59375 191.992188 300.898438 192.121094 C 301.199219 192.246094 301.511719 192.339844 301.835938 192.402344 C 302.15625 192.46875 302.480469 192.5 302.808594 192.5 L 332.5 192.5 C 332.828125 192.5 333.152344 192.46875 333.476562 192.402344 C 333.796875 192.339844 334.109375 192.246094 334.414062 192.121094 C 334.714844 191.992188 335.003906 191.839844 335.277344 191.65625 C 335.550781 191.476562 335.804688 191.269531 336.035156 191.035156 C 336.269531 190.804688 336.476562 190.550781 336.65625 190.277344 C 336.839844 190.003906 336.992188 189.714844 337.121094 189.414062 C 337.246094 189.109375 337.339844 188.796875 337.402344 188.476562 C 337.46875 188.152344 337.5 187.828125 337.5 187.5 C 337.5 187.171875 337.46875 186.847656 337.402344 186.523438 C 337.339844 186.203125 337.246094 185.890625 337.121094 185.585938 C 336.992188 185.285156 336.839844 184.996094 336.65625 184.722656 C 336.476562 184.449219 336.269531 184.195312 336.035156 183.964844 C 335.804688 183.730469 335.550781 183.523438 335.277344 183.34375 C 335.003906 183.160156 334.714844 183.007812 334.414062 182.878906 C 334.109375 182.753906 333.796875 182.660156 333.476562 182.597656 C 333.152344 182.53125 332.828125 182.5 332.5 182.5 Z M 332.5 182.5 " fill-opacity="1" fill-rule="nonzero"/></g><g clip-path="url(#58ba4ccb71)"><path fill="#0ea5e9" d="M 332.5 227.363281 L 302.808594 227.363281 C 302.480469 227.363281 302.15625 227.398438 301.835938 227.460938 C 301.511719 227.523438 301.199219 227.621094 300.898438 227.746094 C 300.59375 227.871094 300.304688 228.023438 300.03125 228.207031 C 299.757812 228.390625 299.507812 228.597656 299.273438 228.828125 C 299.042969 229.0625 298.835938 229.3125 298.652344 229.585938 C 298.46875 229.859375 298.316406 230.148438 298.191406 230.453125 C 298.066406 230.753906 297.96875 231.066406 297.90625 231.390625 C 297.84375 231.710938 297.808594 232.035156 297.808594 232.363281 C 297.808594 232.691406 297.84375 233.019531 297.90625 233.339844 C 297.96875 233.664062 298.066406 233.976562 298.191406 234.277344 C 298.316406 234.582031 298.46875 234.871094 298.652344 235.144531 C 298.835938 235.414062 299.042969 235.667969 299.273438 235.902344 C 299.507812 236.132812 299.757812 236.339844 300.03125 236.523438 C 300.304688 236.703125 300.59375 236.859375 300.898438 236.984375 C 301.199219 237.109375 301.511719 237.203125 301.835938 237.269531 C 302.15625 237.332031 302.480469 237.363281 302.808594 237.363281 L 332.5 237.363281 C 332.828125 237.363281 333.152344 237.332031 333.476562 237.269531 C 333.796875 237.203125 334.109375 237.109375 334.414062 236.984375 C 334.714844 236.859375 335.003906 236.703125 335.277344 236.523438 C 335.550781 236.339844 335.804688 236.132812 336.035156 235.902344 C 336.269531 235.667969 336.476562 235.414062 336.65625 235.144531 C 336.839844 234.871094 336.992188 234.582031 337.121094 234.277344 C 337.246094 233.976562 337.339844 233.664062 337.402344 233.339844 C 337.46875 233.019531 337.5 232.691406 337.5 232.363281 C 337.5 232.035156 337.46875 231.710938 337.402344 231.390625 C 337.339844 231.066406 337.246094 230.753906 337.121094 230.453125 C 336.992188 230.148438 336.839844 229.859375 336.65625 229.585938 C 336.476562 229.3125 336.269531 229.0625 336.035156 228.828125 C 335.804688 228.597656 335.550781 228.390625 335.277344 228.207031 C 335.003906 228.023438 334.714844 227.871094 334.414062 227.746094 C 334.109375 227.621094 333.796875 227.523438 333.476562 227.460938 C 333.152344 227.398438 332.828125 227.363281 332.5 227.363281 Z M 332.5 227.363281 " fill-opacity="1" fill-rule="nonzero"/></g></svg>