<svg xmlns="http://www.w3.org/2000/svg" xmlns:xlink="http://www.w3.org/1999/xlink" width="500" zoomAndPan="magnify" viewBox="0 0 375.12 383.03998" height="500" preserveAspectRatio="xMidYMid meet" version="1.0"><defs><clipPath id="40ed6209b5"><path d="M 58.382812 37.40625 L 315.738281 37.40625 L 315.738281 336.65625 L 58.382812 336.65625 Z M 58.382812 37.40625 " clip-rule="nonzero"/></clipPath></defs><g clip-path="url(#40ed6209b5)"><path fill="#0f172a" d="M 300.546875 161.785156 C 298.207031 161.785156 296.335938 160.382812 295.636719 158.28125 C 294 152.671875 291.664062 147.292969 288.859375 141.917969 C 287.921875 140.046875 288.15625 137.476562 289.792969 135.839844 C 292.597656 133.035156 294.234375 129.296875 294.234375 125.320312 C 294.234375 121.347656 292.597656 117.609375 289.792969 114.804688 L 275.300781 100.3125 C 269.457031 94.46875 260.105469 94.46875 254.261719 100.3125 C 252.628906 101.949219 250.289062 102.179688 248.1875 101.246094 C 243.042969 98.441406 237.433594 96.105469 231.824219 94.46875 C 229.71875 93.765625 228.316406 91.894531 228.316406 89.558594 C 228.316406 81.378906 221.539062 74.597656 213.359375 74.597656 L 207.980469 74.597656 L 207.980469 42.109375 C 207.980469 39.539062 205.878906 37.433594 203.304688 37.433594 C 200.734375 37.433594 198.632812 39.539062 198.632812 42.109375 L 198.632812 56.132812 L 172.917969 56.132812 C 167.777344 56.132812 163.570312 60.339844 163.570312 65.484375 L 163.570312 79.507812 L 161.230469 79.507812 C 156.089844 79.507812 151.882812 83.714844 151.882812 88.859375 L 151.882812 92.128906 L 88.769531 92.128906 C 86.199219 92.128906 84.097656 94.234375 84.097656 96.804688 L 84.097656 120.179688 C 84.097656 122.75 86.199219 124.855469 88.769531 124.855469 L 96.015625 124.855469 C 96.015625 125.320312 95.785156 125.789062 95.785156 126.257812 L 95.785156 285.203125 L 63.058594 285.203125 C 60.488281 285.203125 58.382812 287.308594 58.382812 289.878906 L 58.382812 313.253906 C 58.382812 315.824219 60.488281 317.929688 63.058594 317.929688 L 198.632812 317.929688 L 198.632812 331.953125 C 198.632812 334.523438 200.734375 336.628906 203.304688 336.628906 C 205.878906 336.628906 207.980469 334.523438 207.980469 331.953125 L 207.980469 299.230469 L 213.589844 299.230469 C 221.773438 299.230469 228.550781 292.449219 228.550781 284.269531 C 228.550781 281.933594 229.953125 280.0625 232.058594 279.359375 C 237.667969 277.726562 243.042969 275.386719 248.417969 272.582031 C 250.289062 271.648438 252.859375 271.882812 254.496094 273.515625 C 260.339844 279.359375 269.691406 279.359375 275.535156 273.515625 L 290.027344 259.023438 C 295.871094 253.179688 295.871094 243.832031 290.027344 237.988281 C 288.390625 236.351562 288.15625 234.015625 289.089844 231.910156 C 291.898438 226.769531 294.234375 221.160156 295.871094 215.546875 C 296.570312 213.445312 298.441406 212.042969 300.777344 212.042969 C 308.960938 212.042969 315.738281 205.261719 315.738281 197.082031 L 315.738281 176.511719 C 315.503906 168.566406 308.726562 161.785156 300.546875 161.785156 Z M 93.445312 115.503906 L 93.445312 101.480469 L 151.882812 101.480469 L 151.882812 115.503906 Z M 137.859375 257.15625 L 119.15625 257.15625 C 116.585938 257.15625 114.484375 255.050781 114.484375 252.480469 C 114.484375 249.910156 116.585938 247.804688 119.15625 247.804688 L 137.859375 247.804688 C 140.429688 247.804688 142.53125 249.910156 142.53125 252.480469 C 142.53125 255.050781 140.429688 257.15625 137.859375 257.15625 Z M 142.53125 271.179688 C 142.53125 273.75 140.429688 275.855469 137.859375 275.855469 L 119.15625 275.855469 C 116.585938 275.855469 114.484375 273.75 114.484375 271.179688 C 114.484375 268.609375 116.585938 266.503906 119.15625 266.503906 L 137.859375 266.503906 C 140.429688 266.503906 142.53125 268.609375 142.53125 271.179688 Z M 137.859375 238.457031 L 119.15625 238.457031 C 116.585938 238.457031 114.484375 236.351562 114.484375 233.78125 C 114.484375 231.210938 116.585938 229.105469 119.15625 229.105469 L 137.859375 229.105469 C 140.429688 229.105469 142.53125 231.210938 142.53125 233.78125 C 142.53125 236.351562 140.429688 238.457031 137.859375 238.457031 Z M 137.859375 219.753906 L 119.15625 219.753906 C 116.585938 219.753906 114.484375 217.652344 114.484375 215.082031 C 114.484375 212.507812 116.585938 210.40625 119.15625 210.40625 L 137.859375 210.40625 C 140.429688 210.40625 142.53125 212.507812 142.53125 215.082031 C 142.53125 217.652344 140.429688 219.753906 137.859375 219.753906 Z M 137.859375 201.054688 L 119.15625 201.054688 C 116.585938 201.054688 114.484375 198.953125 114.484375 196.382812 C 114.484375 193.808594 116.585938 191.707031 119.15625 191.707031 L 137.859375 191.707031 C 140.429688 191.707031 142.53125 193.808594 142.53125 196.382812 C 142.53125 198.953125 140.429688 201.054688 137.859375 201.054688 Z M 137.859375 182.355469 L 119.15625 182.355469 C 116.585938 182.355469 114.484375 180.253906 114.484375 177.679688 C 114.484375 175.109375 116.585938 173.007812 119.15625 173.007812 L 137.859375 173.007812 C 140.429688 173.007812 142.53125 175.109375 142.53125 177.679688 C 142.53125 180.253906 140.429688 182.355469 137.859375 182.355469 Z M 137.859375 163.65625 L 119.15625 163.65625 C 116.585938 163.65625 114.484375 161.554688 114.484375 158.980469 C 114.484375 156.410156 116.585938 154.308594 119.15625 154.308594 L 137.859375 154.308594 C 140.429688 154.308594 142.53125 156.410156 142.53125 158.980469 C 142.53125 161.554688 140.429688 163.65625 137.859375 163.65625 Z M 137.859375 144.957031 L 119.15625 144.957031 C 116.585938 144.957031 114.484375 142.851562 114.484375 140.28125 C 114.484375 137.710938 116.585938 135.605469 119.15625 135.605469 L 137.859375 135.605469 C 140.429688 135.605469 142.53125 137.710938 142.53125 140.28125 C 142.53125 142.851562 140.429688 144.957031 137.859375 144.957031 Z M 198.632812 308.578125 L 67.734375 308.578125 L 67.734375 294.554688 L 198.632812 294.554688 Z M 198.632812 285.203125 L 161.230469 285.203125 L 161.230469 88.859375 L 198.632812 88.859375 Z M 207.980469 245.234375 L 207.980469 128.828125 C 238.136719 131.164062 261.742188 156.410156 261.742188 187.03125 C 261.742188 217.652344 238.136719 242.898438 207.980469 245.234375 Z M 207.980469 245.234375 " fill-opacity="1" fill-rule="nonzero"/></g><path fill="#0f172a" d="M 184.605469 98.207031 L 175.257812 98.207031 C 172.6875 98.207031 170.582031 100.3125 170.582031 102.882812 C 170.582031 105.453125 172.6875 107.558594 175.257812 107.558594 L 184.605469 107.558594 C 187.179688 107.558594 189.28125 105.453125 189.28125 102.882812 C 189.28125 100.3125 187.179688 98.207031 184.605469 98.207031 Z M 184.605469 98.207031 " fill-opacity="1" fill-rule="nonzero"/><path fill="#0f172a" d="M 184.605469 116.90625 L 175.257812 116.90625 C 172.6875 116.90625 170.582031 119.011719 170.582031 121.582031 C 170.582031 124.152344 172.6875 126.257812 175.257812 126.257812 L 184.605469 126.257812 C 187.179688 126.257812 189.28125 124.152344 189.28125 121.582031 C 189.28125 119.011719 187.179688 116.90625 184.605469 116.90625 Z M 184.605469 116.90625 " fill-opacity="1" fill-rule="nonzero"/><path fill="#0f172a" d="M 184.605469 135.605469 L 175.257812 135.605469 C 172.6875 135.605469 170.582031 137.710938 170.582031 140.28125 C 170.582031 142.851562 172.6875 144.957031 175.257812 144.957031 L 184.605469 144.957031 C 187.179688 144.957031 189.28125 142.851562 189.28125 140.28125 C 189.28125 137.710938 187.179688 135.605469 184.605469 135.605469 Z M 184.605469 135.605469 " fill-opacity="1" fill-rule="nonzero"/><path fill="#0f172a" d="M 184.605469 154.308594 L 175.257812 154.308594 C 172.6875 154.308594 170.582031 156.410156 170.582031 158.980469 C 170.582031 161.554688 172.6875 163.65625 175.257812 163.65625 L 184.605469 163.65625 C 187.179688 163.65625 189.28125 161.554688 189.28125 158.980469 C 189.28125 156.410156 187.179688 154.308594 184.605469 154.308594 Z M 184.605469 154.308594 " fill-opacity="1" fill-rule="nonzero"/><path fill="#0f172a" d="M 184.605469 173.007812 L 175.257812 173.007812 C 172.6875 173.007812 170.582031 175.109375 170.582031 177.679688 C 170.582031 180.253906 172.6875 182.355469 175.257812 182.355469 L 184.605469 182.355469 C 187.179688 182.355469 189.28125 180.253906 189.28125 177.679688 C 189.28125 175.109375 187.179688 173.007812 184.605469 173.007812 Z M 184.605469 173.007812 " fill-opacity="1" fill-rule="nonzero"/><path fill="#0f172a" d="M 184.605469 191.707031 L 175.257812 191.707031 C 172.6875 191.707031 170.582031 193.808594 170.582031 196.382812 C 170.582031 198.953125 172.6875 201.054688 175.257812 201.054688 L 184.605469 201.054688 C 187.179688 201.054688 189.28125 198.953125 189.28125 196.382812 C 189.28125 193.808594 187.179688 191.707031 184.605469 191.707031 Z M 184.605469 191.707031 " fill-opacity="1" fill-rule="nonzero"/><path fill="#0f172a" d="M 184.605469 210.40625 L 175.257812 210.40625 C 172.6875 210.40625 170.582031 212.507812 170.582031 215.082031 C 170.582031 217.652344 172.6875 219.753906 175.257812 219.753906 L 184.605469 219.753906 C 187.179688 219.753906 189.28125 217.652344 189.28125 215.082031 C 189.28125 212.507812 187.179688 210.40625 184.605469 210.40625 Z M 184.605469 210.40625 " fill-opacity="1" fill-rule="nonzero"/><path fill="#0f172a" d="M 184.605469 229.105469 L 175.257812 229.105469 C 172.6875 229.105469 170.582031 231.210938 170.582031 233.78125 C 170.582031 236.351562 172.6875 238.457031 175.257812 238.457031 L 184.605469 238.457031 C 187.179688 238.457031 189.28125 236.351562 189.28125 233.78125 C 189.28125 231.210938 187.179688 229.105469 184.605469 229.105469 Z M 184.605469 229.105469 " fill-opacity="1" fill-rule="nonzero"/><path fill="#0f172a" d="M 184.605469 247.804688 L 175.257812 247.804688 C 172.6875 247.804688 170.582031 249.910156 170.582031 252.480469 C 170.582031 255.050781 172.6875 257.15625 175.257812 257.15625 L 184.605469 257.15625 C 187.179688 257.15625 189.28125 255.050781 189.28125 252.480469 C 189.28125 249.910156 187.179688 247.804688 184.605469 247.804688 Z M 184.605469 247.804688 " fill-opacity="1" fill-rule="nonzero"/><path fill="#0f172a" d="M 184.605469 266.503906 L 175.257812 266.503906 C 172.6875 266.503906 170.582031 268.609375 170.582031 271.179688 C 170.582031 273.75 172.6875 275.855469 175.257812 275.855469 L 184.605469 275.855469 C 187.179688 275.855469 189.28125 273.75 189.28125 271.179688 C 189.28125 268.609375 187.179688 266.503906 184.605469 266.503906 Z M 184.605469 266.503906 " fill-opacity="1" fill-rule="nonzero"/></svg>