<svg xmlns="http://www.w3.org/2000/svg" xmlns:xlink="http://www.w3.org/1999/xlink" width="500" zoomAndPan="magnify" viewBox="0 0 375.12 383.03998" height="500" preserveAspectRatio="xMidYMid meet" version="1.0"><defs><clipPath id="428676d2fa"><path d="M 106 105 L 318.917969 105 L 318.917969 336 L 106 336 Z M 106 105 " clip-rule="nonzero"/></clipPath><clipPath id="f60566d871"><path d="M 55.578125 38 L 138 38 L 138 171 L 55.578125 171 Z M 55.578125 38 " clip-rule="nonzero"/></clipPath></defs><path fill="#0f172a" d="M 212.308594 233.578125 C 218.628906 233.578125 223.773438 238.71875 223.773438 245.042969 C 223.773438 251.367188 218.628906 256.507812 212.308594 256.507812 C 208.230469 256.507812 204.429688 254.316406 202.386719 250.785156 C 201.316406 248.945312 198.953125 248.3125 197.113281 249.386719 C 195.269531 250.453125 194.640625 252.8125 195.707031 254.65625 C 198.46875 259.421875 203.160156 262.695312 208.449219 263.789062 L 208.449219 272.050781 C 208.449219 274.179688 210.175781 275.910156 212.308594 275.910156 C 214.4375 275.910156 216.167969 274.179688 216.167969 272.050781 L 216.167969 263.84375 C 224.902344 262.050781 231.492188 254.304688 231.492188 245.046875 C 231.492188 234.46875 222.886719 225.863281 212.308594 225.863281 C 205.988281 225.863281 200.84375 220.722656 200.84375 214.398438 C 200.84375 208.074219 205.988281 202.933594 212.308594 202.933594 C 216.382812 202.933594 220.1875 205.125 222.230469 208.648438 C 223.300781 210.496094 225.671875 211.136719 227.503906 210.050781 C 229.347656 208.984375 229.976562 206.621094 228.910156 204.78125 C 226.144531 200.015625 221.457031 196.746094 216.167969 195.652344 L 216.167969 187.390625 C 216.167969 185.261719 214.4375 183.53125 212.308594 183.53125 C 210.175781 183.53125 208.449219 185.261719 208.449219 187.390625 L 208.449219 195.605469 C 199.714844 197.394531 193.125 205.140625 193.125 214.398438 C 193.125 224.980469 201.726562 233.582031 212.308594 233.582031 Z M 212.308594 233.578125 " fill-opacity="1" fill-rule="nonzero"/><g clip-path="url(#428676d2fa)"><path fill="#0f172a" d="M 216.1875 123.992188 L 216.1875 109.683594 C 216.1875 107.574219 214.4375 105.824219 212.328125 105.824219 C 185.621094 105.824219 160.199219 114.164062 138.738281 130.011719 C 137.042969 131.300781 136.679688 133.71875 137.914062 135.414062 L 146.40625 146.890625 C 121.292969 166.859375 106.371094 197.527344 106.371094 229.691406 C 106.371094 252.4375 113.679688 273.484375 125.875 290.777344 C 125.976562 290.984375 126.027344 291.238281 126.183594 291.445312 C 126.335938 291.652344 126.59375 291.753906 126.75 291.910156 C 146.046875 318.359375 177.179688 335.652344 212.328125 335.652344 C 243.925781 335.652344 272.230469 321.652344 291.679688 299.628906 C 291.886719 299.472656 292.144531 299.320312 292.351562 299.113281 C 292.503906 298.90625 292.609375 298.703125 292.710938 298.496094 C 308.5625 279.96875 318.234375 255.9375 318.234375 229.691406 C 318.234375 172.621094 272.796875 126.050781 216.1875 123.992188 Z M 212.328125 170.820312 C 212.328125 170.820312 212.328125 170.769531 212.378906 170.769531 C 244.851562 170.820312 271.25 197.21875 271.25 229.691406 C 271.25 262.164062 244.800781 288.667969 212.328125 288.667969 C 179.855469 288.667969 153.40625 262.214844 153.40625 229.691406 C 153.40625 197.167969 179.804688 170.820312 212.226562 170.769531 C 212.277344 170.769531 212.277344 170.820312 212.328125 170.820312 Z M 208.46875 113.699219 L 208.46875 163.257812 C 196.53125 163.976562 185.414062 167.734375 175.945312 173.910156 L 146.511719 134.078125 C 164.882812 121.417969 186.136719 114.417969 208.46875 113.699219 Z M 212.328125 327.929688 C 180.886719 327.929688 152.890625 313.007812 134.929688 289.953125 L 160.507812 271.582031 C 172.753906 286.660156 191.433594 296.386719 212.328125 296.386719 C 231.007812 296.386719 247.886719 288.617188 259.980469 276.160156 L 283.808594 296.796875 C 265.898438 315.890625 240.476562 327.929688 212.328125 327.929688 Z M 212.328125 327.929688 " fill-opacity="1" fill-rule="nonzero"/></g><g clip-path="url(#f60566d871)"><path fill="#0f172a" d="M 96.542969 170.769531 C 97.828125 170.769531 99.0625 170.101562 99.785156 168.96875 L 137.09375 109.375 C 137.8125 108.191406 137.863281 106.699219 137.195312 105.464844 C 136.476562 104.230469 135.1875 103.457031 133.800781 103.457031 L 113.78125 103.457031 L 113.78125 42.269531 C 113.78125 40.160156 112.082031 38.410156 109.921875 38.410156 L 83.109375 38.410156 C 81 38.410156 79.25 40.160156 79.25 42.269531 L 79.25 103.457031 L 59.230469 103.457031 C 57.84375 103.457031 56.554688 104.230469 55.886719 105.464844 C 55.167969 106.699219 55.21875 108.191406 55.988281 109.375 L 93.246094 168.96875 C 93.96875 170.101562 95.203125 170.769531 96.542969 170.769531 Z M 96.542969 170.769531 " fill-opacity="1" fill-rule="nonzero"/></g></svg>