<svg xmlns="http://www.w3.org/2000/svg" xmlns:xlink="http://www.w3.org/1999/xlink" width="500" zoomAndPan="magnify" viewBox="0 0 375.12 383.03998" height="500" preserveAspectRatio="xMidYMid meet" version="1.0"><defs><clipPath id="3b6d9a6935"><path d="M 109 37.40625 L 264 37.40625 L 264 259 L 109 259 Z M 109 37.40625 " clip-rule="nonzero"/></clipPath><clipPath id="bf96c19e63"><path d="M 47.160156 267 L 326 267 L 326 336 L 47.160156 336 Z M 47.160156 267 " clip-rule="nonzero"/></clipPath></defs><g clip-path="url(#3b6d9a6935)"><path fill="#0f172a" d="M 187.078125 248.953125 L 174.300781 248.972656 C 169.671875 248.976562 165.289062 249.371094 161.484375 246.160156 C 155.835938 241.394531 158.175781 231.359375 157.625 224.757812 C 153.617188 224.414062 149.558594 224.886719 145.558594 224.417969 C 143.761719 224.203125 144.101562 223.070312 143.214844 222.167969 C 141.378906 225.890625 138.824219 229.265625 136.621094 232.78125 L 130.171875 242.882812 C 127.722656 246.757812 123.585938 254.363281 119.890625 257.089844 C 116.507812 259.589844 110.324219 258.191406 109.78125 253.523438 C 109.609375 252.042969 109.753906 250.40625 109.753906 248.90625 L 109.773438 223.519531 C 109.777344 219.957031 109.460938 215.988281 110.199219 212.503906 C 114.492188 192.25 122.148438 186.078125 138.976562 174.015625 L 143.988281 170.460938 C 144.863281 169.863281 145.832031 169.128906 146.835938 168.78125 C 148.867188 168.078125 148.066406 167.457031 148.066406 165.453125 L 148.183594 112.765625 C 148.234375 111.859375 148.402344 110.984375 148.492188 110.089844 L 148.984375 104.464844 C 152.203125 80.1875 163.285156 60.507812 179.683594 42.824219 C 181.429688 40.941406 183.402344 38.070312 185.984375 37.421875 C 189.09375 37.601562 191.386719 40.910156 193.359375 42.96875 C 211.152344 61.535156 223.199219 84.707031 224.800781 110.605469 C 225.109375 115.601562 224.890625 120.738281 224.890625 125.746094 L 224.894531 161.300781 C 224.894531 163.628906 224.816406 165.984375 225.011719 168.300781 L 238.203125 176.953125 C 241.488281 179.253906 244.789062 181.617188 247.714844 184.367188 C 257.09375 193.1875 259.832031 200.3125 262.75 212.238281 C 263.542969 215.484375 263.15625 219.523438 263.15625 222.890625 L 263.179688 247.75 C 263.207031 251.796875 263.960938 256.964844 258.902344 258.421875 C 253.078125 260.101562 250.050781 253.597656 247.390625 249.683594 L 230.285156 223.199219 C 228.75 220.988281 228.769531 222.78125 228.605469 224.453125 C 226.832031 224.714844 225.027344 224.636719 223.242188 224.632812 L 215.132812 224.675781 L 215.222656 229.097656 C 215.4375 246.242188 214.007812 248.945312 196.515625 248.957031 Z M 186.335938 51.507812 C 163.292969 80.285156 157.734375 98.433594 157.707031 133.828125 L 157.746094 215.101562 C 159.769531 215.335938 162.035156 215.136719 164.082031 215.132812 L 176.816406 215.0625 L 176.835938 188.308594 C 176.871094 182.09375 179.640625 176.910156 186.574219 176.367188 C 192.3125 176.464844 196.046875 180.957031 196.085938 186.394531 L 196.109375 207.304688 C 196.113281 209.828125 195.878906 212.625 196.171875 215.113281 L 215.195312 215.109375 L 215.1875 119.683594 C 213.773438 92.589844 204.152344 72.054688 186.335938 51.507812 Z M 167.324219 224.660156 C 167.328125 226.441406 166.945312 237.898438 168.105469 238.808594 C 168.613281 239.207031 169.558594 239.199219 170.183594 239.230469 L 200.179688 239.261719 C 201.71875 239.261719 203.386719 239.386719 204.90625 239.121094 L 205.089844 239.082031 C 205.71875 236.972656 205.617188 234.503906 205.625 232.332031 L 205.652344 224.714844 Z M 167.324219 224.660156 " fill-opacity="1" fill-rule="nonzero"/></g><path fill="#0f172a" d="M 188.847656 124.550781 C 184.691406 125.007812 180.238281 123.710938 176.859375 121.277344 C 164.296875 112.226562 169.082031 93.007812 184.625 90.484375 C 189.070312 90.132812 192.75 90.980469 196.484375 93.464844 C 209.851562 102.355469 204.085938 121.617188 188.847656 124.550781 Z M 188.847656 124.550781 " fill-opacity="1" fill-rule="nonzero"/><path fill="#0f172a" d="M 155.449219 275.769531 C 152.804688 276.484375 150.886719 275.125 149.492188 272.878906 C 146.753906 268.46875 147.238281 252.992188 152.035156 250.054688 C 154.820312 249.632812 159.808594 252.222656 159.824219 254.832031 L 159.171875 258.710938 C 157.828125 264.753906 161.097656 273.203125 155.449219 275.769531 Z M 155.449219 275.769531 " fill-opacity="1" fill-rule="nonzero"/><path fill="#0f172a" d="M 222.039062 274.523438 C 219.730469 276.285156 216.863281 275.59375 215.191406 273.292969 C 214.328125 272.105469 214.644531 269.738281 214.648438 268.335938 C 214.65625 264.617188 214.3125 261.628906 213.226562 258.082031 C 212.46875 255.597656 212.0625 253.773438 214.625 252.316406 L 215.5625 252.253906 C 217.6875 252.21875 220.265625 253.941406 221.71875 255.417969 C 225.722656 259.484375 226.386719 270.335938 222.039062 274.523438 Z M 222.039062 274.523438 " fill-opacity="1" fill-rule="nonzero"/><path fill="#0f172a" d="M 188.664062 315.824219 C 182.402344 316.445312 182.117188 314.050781 179.519531 308.945312 L 173.230469 295.671875 C 168.320312 285.035156 161.625 272.640625 170.894531 261.882812 C 174.652344 257.519531 179.71875 255.972656 185.28125 255.523438 C 194.4375 254.683594 202.925781 259.378906 206.464844 268.046875 C 211.078125 279.351562 200.140625 296.433594 195.027344 306.300781 L 192.523438 311.167969 C 191.523438 313.101562 190.792969 314.949219 188.664062 315.824219 Z M 188.664062 315.824219 " fill-opacity="1" fill-rule="nonzero"/><g clip-path="url(#bf96c19e63)"><path fill="#0f172a" d="M 47.167969 325.503906 C 47.164062 322.269531 47.1875 319.09375 47.957031 315.929688 C 51.113281 302.96875 65.789062 291.683594 79.152344 295.15625 L 79.285156 295.195312 C 79.484375 294.914062 79.476562 294.089844 79.523438 293.707031 C 82.015625 272.203125 106.023438 259.441406 124.109375 272.285156 C 129.117188 275.84375 134.152344 281.097656 135.207031 287.398438 L 137.875 286.421875 C 146.035156 283.996094 157.777344 285.273438 162.773438 293.0625 C 164.550781 295.828125 165.714844 299.144531 166.917969 302.199219 L 174.300781 319.472656 C 175.089844 321.207031 176.050781 323.011719 176.578125 324.84375 L 195.996094 325.433594 C 196.273438 325.164062 196.425781 324.648438 196.582031 324.285156 L 203.953125 307.535156 C 206.039062 302.617188 207.890625 296.933594 211.082031 292.648438 C 217.800781 283.613281 235.054688 282.988281 243.789062 289.664062 L 243.96875 289.804688 C 245.34375 277.703125 258.507812 268.019531 270.203125 267.160156 L 270.304688 267.148438 C 286.882812 266.148438 300.882812 278.699219 301.734375 295.214844 C 310.121094 295.832031 317.625 301.550781 321.800781 308.664062 C 324.46875 313.207031 326.957031 324.863281 325.472656 330.152344 L 325.394531 330.410156 C 323.554688 336.636719 315.5625 334.816406 310.484375 334.816406 L 57.355469 334.835938 C 55.753906 334.839844 53.945312 335 52.375 334.710938 L 52.167969 334.671875 C 47.488281 333.796875 47.28125 329.472656 47.167969 325.503906 Z M 47.167969 325.503906 " fill-opacity="1" fill-rule="nonzero"/></g></svg>