<svg xmlns="http://www.w3.org/2000/svg" xmlns:xlink="http://www.w3.org/1999/xlink" width="500" zoomAndPan="magnify" viewBox="0 0 375.12 383.03998" height="500" preserveAspectRatio="xMidYMid meet" version="1.0"><defs><clipPath id="23793b8936"><path d="M 37.4375 37.40625 L 336.6875 37.40625 L 336.6875 336.65625 L 37.4375 336.65625 Z M 37.4375 37.40625 " clip-rule="nonzero"/></clipPath></defs><g clip-path="url(#23793b8936)"><path fill="#0f172a" d="M 258.929688 101.339844 C 262.597656 101.339844 266.113281 102.796875 268.707031 105.386719 C 271.296875 107.980469 272.753906 111.496094 272.753906 115.160156 L 272.753906 258.902344 C 272.753906 262.566406 271.296875 266.082031 268.707031 268.675781 C 266.113281 271.265625 262.597656 272.722656 258.929688 272.722656 L 115.191406 272.722656 C 111.523438 272.722656 108.011719 271.265625 105.417969 268.675781 C 102.824219 266.082031 101.367188 262.566406 101.367188 258.902344 L 101.367188 115.160156 C 101.367188 111.496094 102.824219 107.980469 105.417969 105.386719 C 108.011719 102.796875 111.523438 101.339844 115.191406 101.339844 Z M 239.003906 125.585938 L 135.117188 125.585938 C 132.597656 125.585938 130.179688 126.585938 128.398438 128.367188 C 126.617188 130.148438 125.613281 132.566406 125.613281 135.085938 L 125.613281 238.976562 C 125.613281 241.496094 126.617188 243.914062 128.398438 245.695312 C 130.179688 247.476562 132.597656 248.476562 135.117188 248.476562 L 239.003906 248.476562 C 241.523438 248.476562 243.941406 247.476562 245.722656 245.695312 C 247.507812 243.914062 248.507812 241.496094 248.507812 238.976562 L 248.507812 135.085938 C 248.507812 132.566406 247.507812 130.148438 245.722656 128.367188 C 243.941406 126.585938 241.523438 125.585938 239.003906 125.585938 Z M 135.265625 135.238281 L 238.855469 135.238281 L 238.855469 238.824219 L 135.265625 238.824219 Z M 91.714844 153.695312 L 85.195312 153.695312 C 83.527344 153.695312 82.179688 152.347656 82.179688 150.679688 L 82.179688 125.46875 C 82.179688 123.800781 83.527344 122.453125 85.195312 122.453125 L 91.714844 122.453125 Z M 122.480469 91.6875 L 122.480469 85.164062 C 122.480469 83.5 123.832031 82.148438 125.5 82.148438 L 150.710938 82.148438 C 152.375 82.148438 153.726562 83.5 153.726562 85.164062 L 153.726562 91.6875 Z M 171.4375 91.6875 L 171.4375 85.164062 C 171.4375 83.5 172.789062 82.148438 174.457031 82.148438 L 199.667969 82.148438 C 201.332031 82.148438 202.683594 83.5 202.683594 85.164062 L 202.683594 91.6875 Z M 220.394531 91.6875 L 220.394531 85.164062 C 220.394531 83.5 221.746094 82.148438 223.414062 82.148438 L 248.625 82.148438 C 250.289062 82.148438 251.640625 83.5 251.640625 85.164062 L 251.640625 91.6875 Z M 282.40625 122.453125 L 288.925781 122.453125 C 290.59375 122.453125 291.945312 123.800781 291.945312 125.46875 L 291.945312 150.679688 C 291.945312 152.347656 290.59375 153.695312 288.925781 153.695312 L 282.40625 153.695312 Z M 282.40625 171.410156 L 288.925781 171.410156 C 290.59375 171.410156 291.945312 172.757812 291.945312 174.425781 L 291.945312 199.636719 C 291.945312 201.304688 290.59375 202.652344 288.925781 202.652344 L 282.40625 202.652344 Z M 282.40625 220.367188 L 288.925781 220.367188 C 290.59375 220.367188 291.945312 221.714844 291.945312 223.382812 L 291.945312 248.59375 C 291.945312 250.261719 290.59375 251.609375 288.925781 251.609375 L 282.40625 251.609375 Z M 251.640625 282.375 L 251.640625 288.898438 C 251.640625 290.5625 250.289062 291.914062 248.625 291.914062 L 223.414062 291.914062 C 221.746094 291.914062 220.394531 290.5625 220.394531 288.898438 L 220.394531 282.375 Z M 202.683594 282.375 L 202.683594 288.898438 C 202.683594 290.5625 201.332031 291.914062 199.667969 291.914062 L 174.457031 291.914062 C 172.789062 291.914062 171.4375 290.5625 171.4375 288.898438 L 171.4375 282.375 Z M 153.726562 282.375 L 153.726562 288.898438 C 153.726562 290.5625 152.375 291.914062 150.710938 291.914062 L 125.5 291.914062 C 123.832031 291.914062 122.480469 290.5625 122.480469 288.898438 L 122.480469 282.375 Z M 91.714844 251.609375 L 85.195312 251.609375 C 83.527344 251.609375 82.179688 250.261719 82.179688 248.59375 L 82.179688 223.382812 C 82.179688 221.714844 83.527344 220.367188 85.195312 220.367188 L 91.714844 220.367188 Z M 91.714844 202.652344 L 85.195312 202.652344 C 83.527344 202.652344 82.179688 201.304688 82.179688 199.636719 L 82.179688 174.425781 C 82.179688 172.757812 83.527344 171.410156 85.195312 171.410156 L 91.714844 171.410156 Z M 133.277344 72.496094 L 133.277344 42.234375 C 133.277344 39.570312 135.441406 37.40625 138.105469 37.40625 C 140.769531 37.40625 142.929688 39.570312 142.929688 42.234375 L 142.929688 72.496094 Z M 182.234375 72.496094 L 182.234375 42.234375 C 182.234375 39.570312 184.398438 37.40625 187.0625 37.40625 C 189.726562 37.40625 191.886719 39.570312 191.886719 42.234375 L 191.886719 72.496094 Z M 231.191406 72.496094 L 231.191406 42.234375 C 231.191406 39.570312 233.355469 37.40625 236.019531 37.40625 C 238.683594 37.40625 240.84375 39.570312 240.84375 42.234375 L 240.84375 72.496094 Z M 240.84375 301.566406 L 240.84375 331.828125 C 240.84375 334.492188 238.683594 336.65625 236.019531 336.65625 C 233.355469 336.65625 231.191406 334.492188 231.191406 331.828125 L 231.191406 301.566406 Z M 191.886719 301.566406 L 191.886719 331.828125 C 191.886719 334.492188 189.726562 336.65625 187.0625 336.65625 C 184.398438 336.65625 182.234375 334.492188 182.234375 331.828125 L 182.234375 301.566406 Z M 142.929688 301.566406 L 142.929688 331.828125 C 142.929688 334.492188 140.769531 336.65625 138.105469 336.65625 C 135.441406 336.65625 133.277344 334.492188 133.277344 331.828125 L 133.277344 301.566406 Z M 301.597656 133.246094 L 331.859375 133.246094 C 334.523438 133.246094 336.6875 135.410156 336.6875 138.074219 C 336.6875 140.738281 334.523438 142.902344 331.859375 142.902344 L 301.597656 142.902344 Z M 301.597656 182.203125 L 331.859375 182.203125 C 334.523438 182.203125 336.6875 184.367188 336.6875 187.03125 C 336.6875 189.695312 334.523438 191.859375 331.859375 191.859375 L 301.597656 191.859375 Z M 301.597656 231.160156 L 331.859375 231.160156 C 334.523438 231.160156 336.6875 233.324219 336.6875 235.988281 C 336.6875 238.652344 334.523438 240.816406 331.859375 240.816406 L 301.597656 240.816406 Z M 72.523438 142.902344 L 42.261719 142.902344 C 39.597656 142.902344 37.4375 140.738281 37.4375 138.074219 C 37.4375 135.410156 39.597656 133.246094 42.261719 133.246094 L 72.523438 133.246094 Z M 72.523438 240.816406 L 42.261719 240.816406 C 39.597656 240.816406 37.4375 238.652344 37.4375 235.988281 C 37.4375 233.324219 39.597656 231.160156 42.261719 231.160156 L 72.523438 231.160156 Z M 72.523438 191.859375 L 42.261719 191.859375 C 39.597656 191.859375 37.4375 189.695312 37.4375 187.03125 C 37.4375 184.367188 39.597656 182.203125 42.261719 182.203125 L 72.523438 182.203125 Z M 72.523438 191.859375 " fill-opacity="1" fill-rule="evenodd"/></g></svg>