<svg xmlns="http://www.w3.org/2000/svg" xmlns:xlink="http://www.w3.org/1999/xlink" width="500" zoomAndPan="magnify" viewBox="0 0 375.12 383.03998" height="500" preserveAspectRatio="xMidYMid meet" version="1.0"><defs><clipPath id="26f6c778c5"><path d="M 183 255 L 191 255 L 191 293.453125 L 183 293.453125 Z M 183 255 " clip-rule="nonzero"/></clipPath></defs><path fill="#0f172a" d="M 84.015625 187.019531 C 112.46875 223.808594 149.785156 242.160156 187.058594 242.160156 C 224.332031 242.160156 261.652344 223.808594 290.101562 187.019531 C 233.199219 113.53125 140.964844 113.53125 84.015625 187.019531 Z M 187.058594 232.808594 C 161.742188 232.808594 141.273438 212.339844 141.273438 187.019531 C 141.273438 161.746094 161.742188 141.277344 187.058594 141.277344 C 212.335938 141.277344 232.800781 161.746094 232.800781 187.019531 C 232.804688 212.339844 212.335938 232.808594 187.058594 232.808594 Z M 187.058594 232.808594 " fill-opacity="1" fill-rule="nonzero"/><path fill="#0f172a" d="M 187.054688 156.039062 C 169.925781 156.039062 156.058594 169.90625 156.058594 187.035156 C 156.058594 204.164062 169.925781 218.03125 187.054688 218.03125 C 204.179688 218.03125 218.050781 204.164062 218.050781 187.035156 C 218.050781 169.90625 204.179688 156.039062 187.054688 156.039062 Z M 187.046875 201.375 C 179.140625 201.375 172.703125 194.9375 172.703125 187.03125 C 172.703125 179.125 179.140625 172.6875 187.046875 172.6875 C 195.003906 172.6875 201.390625 179.125 201.390625 187.03125 C 201.390625 194.9375 195.007812 201.375 187.046875 201.375 Z M 187.046875 201.375 " fill-opacity="1" fill-rule="nonzero"/><path fill="#0f172a" d="M 98.929688 98.898438 L 128.0625 98.898438 L 128.0625 93.011719 L 93.042969 93.011719 L 93.042969 128.03125 L 98.929688 128.03125 Z M 98.929688 98.898438 " fill-opacity="1" fill-rule="nonzero"/><path fill="#0f172a" d="M 98.929688 246.03125 L 93.042969 246.03125 L 93.042969 281.050781 L 128.0625 281.050781 L 128.0625 275.164062 L 98.929688 275.164062 Z M 98.929688 246.03125 " fill-opacity="1" fill-rule="nonzero"/><path fill="#0f172a" d="M 275.191406 128.03125 L 281.078125 128.03125 L 281.078125 93.011719 L 246.054688 93.011719 L 246.054688 98.898438 L 275.191406 98.898438 Z M 275.191406 128.03125 " fill-opacity="1" fill-rule="nonzero"/><path fill="#0f172a" d="M 275.191406 275.164062 L 246.054688 275.164062 L 246.054688 281.050781 L 281.078125 281.050781 L 281.078125 246.03125 L 275.191406 246.03125 Z M 275.191406 275.164062 " fill-opacity="1" fill-rule="nonzero"/><path fill="#0f172a" d="M 295.402344 183.929688 L 335.898438 183.929688 L 335.898438 190.132812 L 295.402344 190.132812 Z M 295.402344 183.929688 " fill-opacity="1" fill-rule="nonzero"/><path fill="#0f172a" d="M 38.222656 183.929688 L 78.714844 183.929688 L 78.714844 190.132812 L 38.222656 190.132812 Z M 38.222656 183.929688 " fill-opacity="1" fill-rule="nonzero"/><path fill="#0f172a" d="M 183.960938 81.058594 L 190.160156 81.058594 L 190.160156 118.632812 L 183.960938 118.632812 Z M 183.960938 81.058594 " fill-opacity="1" fill-rule="nonzero"/><g clip-path="url(#26f6c778c5)"><path fill="#0f172a" d="M 183.960938 255.429688 L 190.160156 255.429688 L 190.160156 293.003906 L 183.960938 293.003906 Z M 183.960938 255.429688 " fill-opacity="1" fill-rule="nonzero"/></g></svg>