<svg xmlns="http://www.w3.org/2000/svg" xmlns:xlink="http://www.w3.org/1999/xlink" width="500" zoomAndPan="magnify" viewBox="0 0 375.12 383.03998" height="500" preserveAspectRatio="xMidYMid meet" version="1.0"><defs><clipPath id="b2c66f60fb"><path d="M 164 37.40625 L 210 37.40625 L 210 110 L 164 110 Z M 164 37.40625 " clip-rule="nonzero"/></clipPath><clipPath id="b9cae56f56"><path d="M 265 164 L 336.6875 164 L 336.6875 210 L 265 210 Z M 265 164 " clip-rule="nonzero"/></clipPath><clipPath id="729c3fffd6"><path d="M 164 264 L 210 264 L 210 336.65625 L 164 336.65625 Z M 164 264 " clip-rule="nonzero"/></clipPath><clipPath id="19b46657f8"><path d="M 37.4375 164 L 110 164 L 110 210 L 37.4375 210 Z M 37.4375 164 " clip-rule="nonzero"/></clipPath></defs><path fill="#0f172a" d="M 244.539062 226.035156 C 245.105469 224.953125 245.207031 223.714844 244.949219 222.527344 C 240.101562 202.5625 225.652344 187.082031 207.183594 180.53125 C 215.027344 174.492188 220.082031 165.050781 220.082031 154.421875 C 220.082031 136.261719 205.273438 121.453125 187.113281 121.453125 C 168.898438 121.453125 154.144531 136.261719 154.144531 154.421875 C 154.144531 165.050781 159.199219 174.492188 167.042969 180.53125 C 148.726562 187.082031 134.332031 202.355469 129.378906 222.117188 C 129.070312 223.042969 129.015625 224.078125 129.273438 225.003906 C 129.53125 225.933594 129.996094 226.8125 130.71875 227.480469 C 145.0625 243.476562 165.546875 252.660156 187.113281 252.660156 C 208.78125 252.660156 229.472656 243.371094 243.816406 227.171875 C 244.074219 226.863281 244.332031 226.449219 244.539062 226.035156 Z M 164.410156 154.371094 C 164.410156 141.886719 174.574219 131.722656 187.0625 131.722656 C 199.546875 131.722656 209.710938 141.886719 209.710938 154.371094 C 209.710938 166.859375 199.597656 176.96875 187.113281 177.023438 C 187.0625 177.023438 187.0625 177.023438 187.007812 177.023438 C 186.957031 177.023438 186.957031 177.023438 186.90625 177.023438 C 174.523438 177.023438 164.410156 166.859375 164.410156 154.371094 Z M 164.410156 154.371094 " fill-opacity="1" fill-rule="nonzero"/><g clip-path="url(#b2c66f60fb)"><path fill="#0f172a" d="M 181.902344 80.953125 L 181.902344 103.910156 C 181.902344 106.75 184.222656 109.070312 187.0625 109.070312 C 189.898438 109.070312 192.222656 106.75 192.222656 103.910156 L 192.222656 80.953125 C 201.921875 78.628906 209.195312 69.910156 209.195312 59.488281 C 209.195312 47.3125 199.238281 37.40625 187.0625 37.40625 C 174.886719 37.40625 164.925781 47.3125 164.925781 59.539062 C 164.925781 69.910156 172.203125 78.628906 181.902344 80.953125 Z M 181.902344 80.953125 " fill-opacity="1" fill-rule="nonzero"/></g><path fill="#0f172a" d="M 245.828125 133.425781 C 247.167969 133.425781 248.460938 132.910156 249.492188 131.929688 L 265.742188 115.675781 C 269.199219 117.789062 273.121094 118.976562 277.25 118.976562 C 283.128906 118.976562 288.703125 116.65625 292.882812 112.476562 C 301.5 103.859375 301.5 89.828125 292.882812 81.210938 C 288.703125 77.03125 283.128906 74.710938 277.25 74.710938 C 271.316406 74.710938 265.792969 77.03125 261.617188 81.210938 C 254.238281 88.589844 253.257812 99.835938 258.417969 108.347656 L 242.164062 124.601562 C 240.152344 126.613281 240.152344 129.863281 242.164062 131.875 C 243.195312 132.910156 244.484375 133.425781 245.828125 133.425781 Z M 245.828125 133.425781 " fill-opacity="1" fill-rule="nonzero"/><g clip-path="url(#b9cae56f56)"><path fill="#0f172a" d="M 314.550781 164.898438 C 304.128906 164.898438 295.460938 172.171875 293.140625 181.871094 L 270.179688 181.871094 C 267.34375 181.871094 265.019531 184.195312 265.019531 187.03125 C 265.019531 189.867188 267.34375 192.191406 270.179688 192.191406 L 293.140625 192.191406 C 295.460938 201.890625 304.179688 209.164062 314.605469 209.164062 C 326.78125 209.164062 336.738281 199.257812 336.738281 187.03125 C 336.738281 174.804688 326.78125 164.898438 314.550781 164.898438 Z M 314.550781 164.898438 " fill-opacity="1" fill-rule="nonzero"/></g><path fill="#0f172a" d="M 265.691406 258.386719 L 249.4375 242.132812 C 247.425781 240.121094 244.175781 240.121094 242.164062 242.132812 C 240.152344 244.148438 240.152344 247.398438 242.164062 249.410156 L 258.417969 265.660156 C 256.300781 269.117188 255.113281 273.039062 255.113281 277.167969 C 255.113281 283.101562 257.4375 288.621094 261.5625 292.800781 C 265.898438 297.132812 271.523438 299.25 277.199219 299.25 C 282.871094 299.25 288.496094 297.082031 292.832031 292.800781 C 297.011719 288.621094 299.28125 283.050781 299.28125 277.167969 C 299.28125 271.285156 296.957031 265.714844 292.832031 261.535156 C 285.503906 254.207031 274.203125 253.175781 265.691406 258.386719 Z M 265.691406 258.386719 " fill-opacity="1" fill-rule="nonzero"/><g clip-path="url(#729c3fffd6)"><path fill="#0f172a" d="M 192.222656 293.109375 L 192.222656 270.152344 C 192.222656 267.3125 189.898438 264.992188 187.0625 264.992188 C 184.222656 264.992188 181.902344 267.3125 181.902344 270.152344 L 181.902344 293.109375 C 172.203125 295.433594 164.925781 304.152344 164.925781 314.574219 C 164.925781 326.75 174.832031 336.707031 187.0625 336.707031 C 199.289062 336.707031 209.195312 326.800781 209.195312 314.574219 C 209.195312 304.152344 201.921875 295.433594 192.222656 293.109375 Z M 192.222656 293.109375 " fill-opacity="1" fill-rule="nonzero"/></g><path fill="#0f172a" d="M 124.632812 242.132812 L 108.378906 258.386719 C 104.921875 256.269531 101 255.085938 96.875 255.085938 C 90.941406 255.085938 85.417969 257.40625 81.242188 261.585938 C 72.625 270.203125 72.625 284.234375 81.242188 292.851562 C 85.417969 297.03125 90.992188 299.351562 96.875 299.351562 C 102.753906 299.351562 108.328125 297.03125 112.507812 292.851562 C 119.886719 285.472656 120.863281 274.226562 115.707031 265.714844 L 131.957031 249.460938 C 133.96875 247.449219 133.96875 244.199219 131.957031 242.1875 C 129.945312 240.175781 126.644531 240.121094 124.632812 242.132812 Z M 124.632812 242.132812 " fill-opacity="1" fill-rule="nonzero"/><g clip-path="url(#19b46657f8)"><path fill="#0f172a" d="M 80.980469 192.191406 L 103.941406 192.191406 C 106.78125 192.191406 109.101562 189.867188 109.101562 187.03125 C 109.101562 184.195312 106.78125 181.871094 103.941406 181.871094 L 80.980469 181.871094 C 78.660156 172.171875 69.941406 164.898438 59.519531 164.898438 C 47.34375 164.898438 37.4375 174.855469 37.4375 187.03125 C 37.4375 199.207031 47.34375 209.164062 59.570312 209.164062 C 69.941406 209.164062 78.660156 201.890625 80.980469 192.191406 Z M 80.980469 192.191406 " fill-opacity="1" fill-rule="nonzero"/></g><path fill="#0f172a" d="M 96.875 118.976562 C 100.898438 118.976562 104.871094 117.84375 108.378906 115.675781 L 124.632812 131.929688 C 125.664062 132.960938 126.953125 133.425781 128.292969 133.425781 C 129.636719 133.425781 130.925781 132.910156 131.957031 131.929688 C 133.96875 129.914062 133.96875 126.664062 131.957031 124.652344 L 115.707031 108.402344 C 117.820312 104.945312 119.007812 101.023438 119.007812 96.894531 C 119.007812 90.960938 116.6875 85.441406 112.507812 81.261719 C 103.890625 72.644531 89.855469 72.644531 81.242188 81.261719 C 77.0625 85.441406 74.738281 91.011719 74.738281 96.894531 C 74.738281 102.777344 77.0625 108.347656 81.242188 112.527344 C 85.574219 116.8125 91.25 118.976562 96.875 118.976562 Z M 96.875 118.976562 " fill-opacity="1" fill-rule="nonzero"/></svg>