<svg xmlns="http://www.w3.org/2000/svg" xmlns:xlink="http://www.w3.org/1999/xlink" width="500" zoomAndPan="magnify" viewBox="0 0 375.12 383.03998" height="500" preserveAspectRatio="xMidYMid meet" version="1.0"><defs><clipPath id="5a48f11419"><path d="M 47.160156 37.40625 L 237 37.40625 L 237 227 L 47.160156 227 Z M 47.160156 37.40625 " clip-rule="nonzero"/></clipPath></defs><g clip-path="url(#5a48f11419)"><path fill="#0f172a" d="M 127.753906 222.027344 C 128.59375 221.808594 129.496094 221.683594 130.335938 221.589844 C 131.269531 221.496094 132.234375 221.464844 133.199219 221.464844 C 138.488281 221.464844 143.808594 222.992188 148.785156 225.945312 L 150.402344 226.910156 L 127.570312 171.074219 C 112.390625 165.195312 101.5625 150.480469 101.5625 133.214844 C 101.5625 110.820312 119.761719 92.621094 142.160156 92.621094 C 164.554688 92.621094 182.722656 110.820312 182.722656 133.214844 C 182.722656 139.25 181.414062 145.003906 179.050781 150.136719 L 188.757812 173.871094 C 190.746094 172.070312 193.019531 170.480469 195.539062 169.300781 C 195.972656 169.082031 196.347656 168.925781 196.71875 168.800781 C 200.046875 167.402344 203.59375 166.75 207.234375 166.75 C 212.800781 166.75 218.027344 168.367188 222.476562 171.230469 C 224.34375 168.769531 226.613281 166.59375 229.320312 164.820312 C 230.625 163.980469 231.933594 163.265625 233.300781 162.675781 L 236.414062 153.09375 C 237.035156 151.195312 236.070312 149.082031 234.203125 148.335938 L 218.277344 141.707031 C 218.558594 138.910156 218.742188 136.140625 218.742188 133.277344 C 218.742188 130.417969 218.589844 127.585938 218.277344 124.785156 L 234.140625 118.191406 C 236.039062 117.382812 237.003906 115.328125 236.382812 113.371094 L 230.035156 93.898438 C 229.414062 91.96875 227.421875 90.847656 225.433594 91.316406 L 208.664062 95.328125 C 205.835938 90.382812 202.476562 85.839844 198.710938 81.703125 L 207.699219 66.925781 C 208.757812 65.183594 208.324219 62.945312 206.675781 61.730469 L 190.09375 49.695312 C 188.476562 48.511719 186.175781 48.761719 184.867188 50.316406 L 173.636719 63.410156 C 168.566406 61.140625 163.21875 59.273438 157.554688 58.125 L 156.21875 40.984375 C 156.0625 38.960938 154.351562 37.40625 152.332031 37.40625 L 131.863281 37.40625 C 129.839844 37.40625 128.160156 38.960938 127.972656 40.984375 L 126.636719 58.125 C 121.035156 59.273438 115.65625 61.109375 110.554688 63.441406 L 99.324219 50.316406 C 98.015625 48.761719 95.746094 48.511719 94.097656 49.695312 L 77.550781 61.730469 C 75.898438 62.945312 75.433594 65.183594 76.492188 66.925781 L 85.511719 81.703125 C 81.71875 85.839844 78.390625 90.382812 75.558594 95.328125 L 58.792969 91.316406 C 56.800781 90.847656 54.777344 91.9375 54.15625 93.898438 L 47.871094 113.371094 C 47.25 115.296875 48.152344 117.382812 50.082031 118.191406 L 66.007812 124.785156 C 65.664062 127.585938 65.511719 130.386719 65.511719 133.277344 C 65.511719 136.140625 65.664062 138.941406 66.007812 141.707031 L 50.082031 148.335938 C 48.183594 149.082031 47.25 151.195312 47.871094 153.09375 L 54.15625 172.597656 C 54.777344 174.496094 56.800781 175.644531 58.792969 175.179688 L 75.558594 171.167969 C 78.390625 176.113281 81.71875 180.625 85.511719 184.792969 L 76.492188 199.535156 C 75.433594 201.277344 75.898438 203.550781 77.550781 204.730469 L 94.097656 216.769531 C 95.746094 217.953125 98.015625 217.703125 99.324219 216.179688 L 110.554688 203.050781 C 115.65625 205.382812 121.003906 207.1875 126.636719 208.339844 Z M 127.753906 222.027344 " fill-opacity="1" fill-rule="nonzero"/></g><path fill="#0f172a" d="M 322.082031 241.5625 C 321.863281 240.972656 321.675781 240.441406 321.460938 239.945312 L 296.015625 177.730469 C 293.308594 171.105469 286.527344 167.277344 279.871094 168.617188 C 278.90625 168.800781 278.003906 169.082031 277.132812 169.425781 C 269.820312 172.410156 266.304688 180.777344 269.292969 188.058594 L 269.542969 188.648438 C 270.414062 190.828125 269.386719 193.285156 267.238281 194.1875 C 265.0625 195.058594 262.605469 194.03125 261.703125 191.882812 L 257.90625 182.582031 C 254.921875 175.273438 246.554688 171.757812 239.242188 174.742188 C 238.371094 175.085938 237.53125 175.550781 236.722656 176.082031 C 231.03125 179.785156 228.882812 187.28125 231.589844 193.875 L 232.898438 197.078125 C 233.769531 199.226562 232.742188 201.714844 230.566406 202.617188 C 228.386719 203.488281 225.929688 202.460938 225.027344 200.3125 L 220.453125 189.085938 C 217.46875 181.804688 209.101562 178.289062 201.789062 181.308594 C 201.574219 181.402344 201.355469 181.496094 201.105469 181.617188 C 194.355469 184.792969 191.277344 193.316406 194.261719 200.625 L 196.503906 206.070312 C 197.375 208.246094 196.316406 210.703125 194.136719 211.605469 C 191.960938 212.476562 189.503906 211.449219 188.601562 209.273438 L 159.578125 138.316406 C 156.871094 131.722656 150.089844 127.867188 143.464844 129.140625 C 142.5 129.328125 141.566406 129.609375 140.664062 129.980469 C 133.386719 132.96875 129.902344 141.335938 132.886719 148.644531 L 174.882812 251.113281 C 175.597656 252.886719 174.539062 254.441406 173.171875 255 C 172.550781 255.25 171.617188 255.40625 170.558594 254.8125 L 141.816406 237.488281 C 138.519531 235.527344 135.066406 234.6875 131.800781 235.03125 C 130.335938 235.183594 128.84375 235.558594 127.445312 236.117188 C 124.550781 237.300781 122.0625 239.320312 120.289062 241.933594 C 116.089844 248.46875 117.429688 257.300781 123.433594 262.527344 L 189.691406 319.484375 C 205.523438 333.109375 227.390625 336.65625 246.738281 328.753906 L 290.695312 310.773438 C 303.882812 305.394531 314.398438 295.285156 320.308594 282.375 C 326.25 269.339844 326.871094 254.875 322.082031 241.5625 Z M 322.082031 241.5625 " fill-opacity="1" fill-rule="nonzero"/></svg>