<svg xmlns="http://www.w3.org/2000/svg" xmlns:xlink="http://www.w3.org/1999/xlink" width="500" zoomAndPan="magnify" viewBox="0 0 375.12 383.03998" height="500" preserveAspectRatio="xMidYMid meet" version="1.0"><defs><clipPath id="aa7c14f7ad"><path d="M 37.4375 37.40625 L 334.441406 37.40625 L 334.441406 336.65625 L 37.4375 336.65625 Z M 37.4375 37.40625 " clip-rule="nonzero"/></clipPath></defs><path fill="#0f172a" d="M 84.796875 210.617188 L 108.421875 210.617188 C 111.695312 210.617188 114.351562 207.960938 114.351562 204.683594 L 114.351562 181.0625 C 114.351562 177.785156 111.699219 175.128906 108.421875 175.128906 L 84.796875 175.128906 C 81.523438 175.128906 78.867188 177.785156 78.867188 181.0625 L 78.867188 204.683594 C 78.867188 207.960938 81.523438 210.617188 84.796875 210.617188 Z M 84.796875 210.617188 " fill-opacity="1" fill-rule="nonzero"/><path fill="#0f172a" d="M 84.796875 259.457031 L 108.421875 259.457031 C 111.695312 259.457031 114.351562 256.800781 114.351562 253.523438 L 114.351562 229.902344 C 114.351562 226.625 111.699219 223.96875 108.421875 223.96875 L 84.796875 223.96875 C 81.523438 223.96875 78.867188 226.625 78.867188 229.902344 L 78.867188 253.523438 C 78.867188 256.800781 81.523438 259.457031 84.796875 259.457031 Z M 84.796875 259.457031 " fill-opacity="1" fill-rule="nonzero"/><path fill="#0f172a" d="M 84.796875 308.296875 L 108.421875 308.296875 C 111.695312 308.296875 114.351562 305.640625 114.351562 302.363281 L 114.351562 278.742188 C 114.351562 275.464844 111.699219 272.808594 108.421875 272.808594 L 84.796875 272.808594 C 81.523438 272.808594 78.867188 275.464844 78.867188 278.742188 L 78.867188 302.363281 C 78.867188 305.640625 81.523438 308.296875 84.796875 308.296875 Z M 84.796875 308.296875 " fill-opacity="1" fill-rule="nonzero"/><path fill="#0f172a" d="M 144.371094 210.617188 L 167.992188 210.617188 C 171.269531 210.617188 173.925781 207.960938 173.925781 204.683594 L 173.925781 181.0625 C 173.925781 177.785156 171.269531 175.128906 167.992188 175.128906 L 144.371094 175.128906 C 141.09375 175.128906 138.4375 177.785156 138.4375 181.0625 L 138.4375 204.683594 C 138.4375 207.960938 141.09375 210.617188 144.371094 210.617188 Z M 144.371094 210.617188 " fill-opacity="1" fill-rule="nonzero"/><path fill="#0f172a" d="M 144.371094 259.457031 L 167.992188 259.457031 C 171.269531 259.457031 173.925781 256.800781 173.925781 253.523438 L 173.925781 229.902344 C 173.925781 226.625 171.269531 223.96875 167.992188 223.96875 L 144.371094 223.96875 C 141.09375 223.96875 138.4375 226.625 138.4375 229.902344 L 138.4375 253.523438 C 138.4375 256.800781 141.09375 259.457031 144.371094 259.457031 Z M 144.371094 259.457031 " fill-opacity="1" fill-rule="nonzero"/><path fill="#0f172a" d="M 144.371094 308.296875 L 167.992188 308.296875 C 171.269531 308.296875 173.925781 305.640625 173.925781 302.363281 L 173.925781 278.742188 C 173.925781 275.464844 171.269531 272.808594 167.992188 272.808594 L 144.371094 272.808594 C 141.09375 272.808594 138.4375 275.464844 138.4375 278.742188 L 138.4375 302.363281 C 138.4375 305.640625 141.09375 308.296875 144.371094 308.296875 Z M 144.371094 308.296875 " fill-opacity="1" fill-rule="nonzero"/><path fill="#0f172a" d="M 203.941406 210.617188 L 227.566406 210.617188 C 230.84375 210.617188 233.5 207.960938 233.5 204.683594 L 233.5 181.0625 C 233.5 177.785156 230.84375 175.128906 227.566406 175.128906 L 203.941406 175.128906 C 200.667969 175.128906 198.011719 177.785156 198.011719 181.0625 L 198.011719 204.683594 C 198.011719 207.960938 200.667969 210.617188 203.941406 210.617188 Z M 203.941406 210.617188 " fill-opacity="1" fill-rule="nonzero"/><path fill="#0f172a" d="M 227.566406 272.808594 L 203.941406 272.808594 C 200.667969 272.808594 198.011719 275.464844 198.011719 278.742188 L 198.011719 302.363281 C 198.011719 305.640625 200.667969 308.296875 203.941406 308.296875 L 227.566406 308.296875 C 230.84375 308.296875 233.5 305.640625 233.5 302.363281 L 233.5 278.742188 C 233.496094 275.464844 230.84375 272.808594 227.566406 272.808594 Z M 227.566406 272.808594 " fill-opacity="1" fill-rule="nonzero"/><path fill="#0f172a" d="M 263.515625 210.617188 L 287.140625 210.617188 C 290.414062 210.617188 293.070312 207.960938 293.070312 204.683594 L 293.070312 181.0625 C 293.070312 177.785156 290.414062 175.128906 287.140625 175.128906 L 263.515625 175.128906 C 260.238281 175.128906 257.582031 177.785156 257.582031 181.0625 L 257.582031 204.683594 C 257.582031 207.960938 260.238281 210.617188 263.515625 210.617188 Z M 263.515625 210.617188 " fill-opacity="1" fill-rule="nonzero"/><path fill="#0f172a" d="M 263.515625 259.457031 L 287.140625 259.457031 C 290.414062 259.457031 293.070312 256.800781 293.070312 253.523438 L 293.070312 229.902344 C 293.070312 226.625 290.414062 223.96875 287.140625 223.96875 L 263.515625 223.96875 C 260.238281 223.96875 257.582031 226.625 257.582031 229.902344 L 257.582031 253.523438 C 257.582031 256.800781 260.238281 259.457031 263.515625 259.457031 Z M 263.515625 259.457031 " fill-opacity="1" fill-rule="nonzero"/><g clip-path="url(#aa7c14f7ad)"><path fill="#0f172a" d="M 264.820312 37.542969 C 259.257812 37.542969 254.746094 42.054688 254.746094 47.617188 L 254.746094 67.863281 L 117.710938 67.863281 L 117.710938 47.617188 C 117.710938 42.054688 113.199219 37.542969 107.636719 37.542969 C 102.070312 37.542969 97.5625 42.054688 97.5625 47.617188 L 97.5625 67.863281 L 65.808594 67.863281 C 50.164062 67.863281 37.4375 80.589844 37.4375 96.234375 L 37.4375 308.148438 C 37.4375 323.792969 50.164062 336.519531 65.808594 336.519531 L 306.128906 336.519531 C 321.773438 336.519531 334.5 323.792969 334.5 308.148438 L 334.5 96.234375 C 334.5 80.589844 321.773438 67.863281 306.128906 67.863281 L 274.894531 67.863281 L 274.894531 47.617188 C 274.894531 42.054688 270.386719 37.542969 264.820312 37.542969 Z M 97.5625 82.316406 L 97.5625 94.824219 C 97.5625 100.390625 102.070312 104.898438 107.636719 104.898438 C 113.199219 104.898438 117.710938 100.390625 117.710938 94.824219 L 117.710938 82.316406 C 121.359375 85.261719 123.695312 89.769531 123.695312 94.824219 C 123.695312 103.695312 116.503906 110.886719 107.632812 110.886719 C 98.761719 110.886719 91.570312 103.695312 91.570312 94.824219 C 91.574219 89.769531 93.910156 85.261719 97.5625 82.316406 Z M 320.523438 308.148438 C 320.523438 316.085938 314.066406 322.542969 306.128906 322.542969 L 65.808594 322.542969 C 57.871094 322.542969 51.414062 316.085938 51.414062 308.148438 L 51.414062 160.882812 L 320.523438 160.882812 Z M 280.882812 94.824219 C 280.882812 103.695312 273.691406 110.886719 264.820312 110.886719 C 255.949219 110.886719 248.757812 103.695312 248.757812 94.824219 C 248.757812 89.769531 251.09375 85.261719 254.746094 82.316406 L 254.746094 94.824219 C 254.746094 100.386719 259.253906 104.898438 264.820312 104.898438 C 270.382812 104.898438 274.894531 100.386719 274.894531 94.824219 L 274.894531 82.316406 C 278.546875 85.261719 280.882812 89.769531 280.882812 94.824219 Z M 280.882812 94.824219 " fill-opacity="1" fill-rule="nonzero"/></g><path fill="#0f172a" d="M 213.886719 262.585938 L 242.035156 234.4375 C 244.765625 231.707031 244.765625 227.28125 242.035156 224.550781 C 239.304688 221.824219 234.882812 221.824219 232.152344 224.550781 L 213.886719 242.820312 L 206.550781 235.484375 C 203.820312 232.753906 199.394531 232.753906 196.664062 235.484375 C 193.9375 238.214844 193.9375 242.636719 196.664062 245.367188 Z M 213.886719 262.585938 " fill-opacity="1" fill-rule="nonzero"/></svg>